<svg width="645" height="218" viewBox="0 0 645 218" fill="none" xmlns="http://www.w3.org/2000/svg">
<line y1="41.5" x2="645" y2="41.5" stroke="white" stroke-opacity="0.1"/>
<line y1="61.5" x2="645" y2="61.5" stroke="white" stroke-opacity="0.1"/>
<line y1="81.5" x2="645" y2="81.5" stroke="white" stroke-opacity="0.1"/>
<line y1="101.5" x2="645" y2="101.5" stroke="white" stroke-opacity="0.1"/>
<line y1="121.5" x2="645" y2="121.5" stroke="white" stroke-opacity="0.1"/>
<line y1="141.5" x2="645" y2="141.5" stroke="white" stroke-opacity="0.1"/>
<line y1="161.5" x2="645" y2="161.5" stroke="white" stroke-opacity="0.1"/>
<line y1="181.5" x2="645" y2="181.5" stroke="white" stroke-opacity="0.1"/>
<line y1="201.5" x2="645" y2="201.5" stroke="white" stroke-opacity="0.1"/>
<line y1="21.5" x2="645" y2="21.5" stroke="white" stroke-opacity="0.1"/>
<line x1="18.5" y1="2.18557e-08" x2="18.5" y2="218" stroke="white" stroke-opacity="0.1"/>
<line x1="38.5" y1="2.18557e-08" x2="38.5" y2="218" stroke="white" stroke-opacity="0.1"/>
<line x1="58.5" y1="2.18557e-08" x2="58.5" y2="218" stroke="white" stroke-opacity="0.1"/>
<line x1="78.5" y1="2.18557e-08" x2="78.5" y2="218" stroke="white" stroke-opacity="0.1"/>
<line x1="98.5" y1="2.18557e-08" x2="98.5" y2="218" stroke="white" stroke-opacity="0.1"/>
<line x1="118.5" y1="2.18557e-08" x2="118.5" y2="218" stroke="white" stroke-opacity="0.1"/>
<line x1="138.5" y1="2.18557e-08" x2="138.5" y2="218" stroke="white" stroke-opacity="0.1"/>
<line x1="158.5" y1="2.18557e-08" x2="158.5" y2="218" stroke="white" stroke-opacity="0.1"/>
<line x1="178.5" y1="2.18557e-08" x2="178.5" y2="218" stroke="white" stroke-opacity="0.1"/>
<line x1="198.5" y1="2.18557e-08" x2="198.5" y2="218" stroke="white" stroke-opacity="0.1"/>
<line x1="218.5" y1="2.18557e-08" x2="218.5" y2="218" stroke="white" stroke-opacity="0.1"/>
<line x1="238.5" y1="2.18557e-08" x2="238.5" y2="218" stroke="white" stroke-opacity="0.1"/>
<line x1="258.5" y1="2.18557e-08" x2="258.5" y2="218" stroke="white" stroke-opacity="0.1"/>
<line x1="278.5" y1="2.18557e-08" x2="278.5" y2="218" stroke="white" stroke-opacity="0.1"/>
<line x1="298.5" y1="2.18557e-08" x2="298.5" y2="218" stroke="white" stroke-opacity="0.1"/>
<line x1="318.5" y1="2.18557e-08" x2="318.5" y2="218" stroke="white" stroke-opacity="0.1"/>
<line x1="338.5" y1="2.18557e-08" x2="338.5" y2="218" stroke="white" stroke-opacity="0.1"/>
<line x1="358.5" y1="2.18557e-08" x2="358.5" y2="218" stroke="white" stroke-opacity="0.1"/>
<line x1="378.5" y1="2.18557e-08" x2="378.5" y2="218" stroke="white" stroke-opacity="0.1"/>
<line x1="398.5" y1="2.18557e-08" x2="398.5" y2="218" stroke="white" stroke-opacity="0.1"/>
<line x1="418.5" y1="2.18557e-08" x2="418.5" y2="218" stroke="white" stroke-opacity="0.1"/>
<line x1="438.5" y1="2.18557e-08" x2="438.5" y2="218" stroke="white" stroke-opacity="0.1"/>
<line x1="458.5" y1="2.18557e-08" x2="458.5" y2="218" stroke="white" stroke-opacity="0.1"/>
<line x1="478.5" y1="2.18557e-08" x2="478.5" y2="218" stroke="white" stroke-opacity="0.1"/>
<line x1="498.5" y1="2.18557e-08" x2="498.5" y2="218" stroke="white" stroke-opacity="0.1"/>
<line x1="518.5" y1="2.18557e-08" x2="518.5" y2="218" stroke="white" stroke-opacity="0.1"/>
<line x1="538.5" y1="2.18557e-08" x2="538.5" y2="218" stroke="white" stroke-opacity="0.1"/>
<line x1="558.5" y1="2.18557e-08" x2="558.5" y2="218" stroke="white" stroke-opacity="0.1"/>
<line x1="578.5" y1="2.18557e-08" x2="578.5" y2="218" stroke="white" stroke-opacity="0.1"/>
<line x1="598.5" y1="2.18557e-08" x2="598.5" y2="218" stroke="white" stroke-opacity="0.1"/>
<line x1="618.5" y1="2.18557e-08" x2="618.5" y2="218" stroke="white" stroke-opacity="0.1"/>
</svg>
