<svg width="24" height="22" viewBox="0 0 24 22" fill="none" xmlns="http://www.w3.org/2000/svg">
<path fill-rule="evenodd" clip-rule="evenodd" d="M0.642974 0.666999C1.0579 0.242642 1.62551 0 2.22222 0H15.6667C16.2634 0 16.831 0.242642 17.2459 0.666999C17.6601 1.09059 17.8889 1.66042 17.8889 2.25V5H21.7778C22.3745 5 22.9421 5.24264 23.357 5.667C23.7712 6.09059 24 6.66043 24 7.25V21C24 21.3897 23.7736 21.744 23.4198 21.9076C23.0661 22.0712 22.6495 22.0144 22.3525 21.7621L18.2792 18.3011C18.2382 18.2663 18.1903 18.25 18.1441 18.25H8.33333C7.73662 18.25 7.16901 18.0074 6.75409 17.583C6.3399 17.1594 6.11111 16.5896 6.11111 16V13.25H5.85589C5.81066 13.25 5.76177 13.2659 5.71856 13.3018L5.71727 13.3029L1.64764 16.762C1.35064 17.0144 0.93404 17.0713 0.580259 16.9076C0.226479 16.744 0 16.3898 0 16V2.25C0 1.66042 0.228793 1.09059 0.642974 0.666999ZM8.11111 13.25V16C8.11111 16.0735 8.13986 16.1395 8.1841 16.1848C8.22759 16.2292 8.28174 16.25 8.33333 16.25H18.1441C18.6693 16.25 19.1748 16.4379 19.5735 16.7764L22 18.8381V7.25C22 7.17653 21.9713 7.11048 21.927 7.06523C21.8835 7.02075 21.8294 7 21.7778 7H17.8889V11C17.8889 11.5896 17.6601 12.1594 17.2459 12.583C16.831 13.0074 16.2634 13.25 15.6667 13.25H8.11111ZM2.22222 2C2.17063 2 2.11648 2.02075 2.07299 2.06523C2.02875 2.11048 2 2.17654 2 2.25V13.8376L4.43006 11.7721C4.82653 11.4387 5.32957 11.25 5.85589 11.25H15.6667C15.7183 11.25 15.7724 11.2292 15.8159 11.1848C15.8601 11.1395 15.8889 11.0735 15.8889 11V2.25C15.8889 2.17654 15.8601 2.11048 15.8159 2.06523C15.7724 2.02075 15.7183 2 15.6667 2H2.22222Z" fill="#0C2340"/>
</svg>
