<svg width="26" height="21" viewBox="0 0 26 21" fill="none" xmlns="http://www.w3.org/2000/svg">
<path fill-rule="evenodd" clip-rule="evenodd" d="M2.14286 5.00001C2.0833 5.00001 2 5.05509 2 5.16668V16.8333C2 16.9449 2.0833 17 2.14286 17H7.85714C7.9167 17 8 16.9449 8 16.8333V5.16668C8 5.05509 7.9167 5.00001 7.85714 5.00001H2.14286ZM0 5.16668C0 3.9896 0.940052 3.00001 2.14286 3.00001H7.85714C9.05995 3.00001 10 3.9896 10 5.16668V16.8333C10 18.0104 9.05995 19 7.85714 19H2.14286C0.940052 19 0 18.0104 0 16.8333V5.16668Z" fill="#0C2340"/>
<path fill-rule="evenodd" clip-rule="evenodd" d="M21.929 0.13547C22.4065 -0.142087 23.0186 0.0199776 23.2961 0.497451C25.0653 3.54095 25.9977 6.98822 26 10.4978C26.0023 14.0073 25.0742 17.4558 23.309 20.5015C23.032 20.9793 22.4201 21.1421 21.9423 20.8652C21.4645 20.5882 21.3016 19.9764 21.5786 19.4986C23.1677 16.7568 24.002 13.6546 24 10.4991C23.998 7.3435 23.1597 4.24237 21.567 1.50257C21.2895 1.0251 21.4515 0.413026 21.929 0.13547ZM17.7241 2.67006C18.2031 2.39513 18.8143 2.56056 19.0892 3.03956C20.3948 5.31437 21.0816 7.88454 21.0816 10.5C21.0816 13.1155 20.3948 15.6856 19.0892 17.9605C18.8143 18.4395 18.2031 18.6049 17.7241 18.33C17.2451 18.055 17.0797 17.4439 17.3546 16.9649C18.487 14.9919 19.0816 12.7648 19.0816 10.5C19.0816 8.2352 18.487 6.00812 17.3546 4.03515C17.0797 3.55616 17.2451 2.94499 17.7241 2.67006ZM13.4992 5.2091C13.9773 4.93255 14.589 5.09589 14.8656 5.57394C15.7333 7.07377 16.1901 8.77158 16.1901 10.5C16.1901 12.2284 15.7333 13.9263 14.8656 15.4261C14.589 15.9041 13.9773 16.0675 13.4992 15.7909C13.0212 15.5144 12.8579 14.9026 13.1344 14.4246C13.8266 13.228 14.1901 11.8754 14.1901 10.5C14.1901 9.12458 13.8266 7.77204 13.1344 6.57545C12.8579 6.09739 13.0212 5.48566 13.4992 5.2091Z" fill="#0C2340"/>
</svg>
