<svg width="16" height="17" viewBox="0 0 16 17" fill="none" xmlns="http://www.w3.org/2000/svg">
<path d="M5.32704 2.39891C5.27004 2.44969 5.22385 2.51143 5.19121 2.58044C5.15858 2.64945 5.14017 2.72432 5.13708 2.80059C5.13399 2.87687 5.14629 2.95298 5.17324 3.0244C5.20019 3.09583 5.24124 3.16109 5.29394 3.21632C5.34665 3.27154 5.40993 3.31559 5.48002 3.34584C5.55012 3.3761 5.62558 3.39193 5.70192 3.39241C5.77826 3.39288 5.85392 3.37799 5.92438 3.34861C5.99484 3.31924 6.05867 3.27598 6.11206 3.22142L7.60701 1.79483C7.71307 1.69347 7.85418 1.63699 8.00089 1.63721C8.1476 1.63742 8.28855 1.6943 8.39431 1.79596L9.87675 3.22028C9.93061 3.27205 9.99414 3.3127 10.0637 3.33991C10.1333 3.36713 10.2075 3.38037 10.2822 3.37889C10.3569 3.37742 10.4306 3.36124 10.499 3.33129C10.5675 3.30135 10.6293 3.25821 10.6811 3.20435C10.7329 3.1505 10.7735 3.08697 10.8008 3.0174C10.828 2.94784 10.8412 2.87359 10.8397 2.7989C10.8383 2.72422 10.8221 2.65055 10.7921 2.58212C10.7622 2.51368 10.719 2.45181 10.6652 2.40005L9.18047 0.975732C8.86325 0.671065 8.44063 0.500638 8.00078 0.500002C7.56093 0.499366 7.13782 0.668571 6.81972 0.972319L5.32704 2.39891ZM2.71827 6.61611C2.77283 6.56273 2.81609 6.4989 2.84547 6.42844C2.87485 6.35799 2.88974 6.28234 2.88927 6.206C2.88879 6.12967 2.87295 6.05421 2.8427 5.98412C2.81244 5.91404 2.76839 5.85076 2.71316 5.79805C2.65794 5.74535 2.59266 5.7043 2.52124 5.67736C2.44981 5.65041 2.37369 5.63811 2.29741 5.6412C2.22113 5.64429 2.14626 5.6627 2.07724 5.69533C2.00823 5.72796 1.94649 5.77415 1.8957 5.83115L0.472424 7.31917C0.169199 7.63664 0 8.05876 0 8.49776C0 8.93676 0.169199 9.35887 0.472424 9.67634L1.89684 11.1666C1.94846 11.2207 2.01021 11.264 2.07857 11.2941C2.14693 11.3242 2.22056 11.3406 2.29525 11.3423C2.36994 11.344 2.44424 11.331 2.51389 11.304C2.58354 11.2769 2.64719 11.2365 2.7012 11.1848C2.75521 11.1332 2.79853 11.0715 2.82867 11.0031C2.85882 10.9348 2.8752 10.8611 2.87689 10.7865C2.87858 10.7118 2.86554 10.6375 2.83852 10.5678C2.8115 10.4982 2.77102 10.4345 2.7194 10.3805L1.29499 8.89024C1.19414 8.78446 1.13788 8.64391 1.13788 8.49776C1.13788 8.35161 1.19414 8.21106 1.29499 8.10528L2.71827 6.61611ZM6.1132 13.7752C6.00412 13.671 5.85809 13.6143 5.70725 13.6178C5.5564 13.6212 5.41309 13.6844 5.30884 13.7934C5.20458 13.9025 5.14794 14.0485 5.15135 14.1994C5.15476 14.3502 5.21796 14.4935 5.32704 14.5977L6.82199 16.0266C7.14041 16.3312 7.56433 16.5008 8.00499 16.5C8.44566 16.4991 8.86891 16.3279 9.18616 16.0221L10.6652 14.5966C10.719 14.5448 10.762 14.4828 10.7919 14.4144C10.8217 14.3459 10.8378 14.2722 10.8392 14.1975C10.8405 14.1228 10.8272 14.0486 10.7999 13.9791C10.7726 13.9095 10.7318 13.8461 10.68 13.7923C10.6281 13.7385 10.5662 13.6955 10.4977 13.6656C10.4292 13.6358 10.3555 13.6197 10.2809 13.6183C10.2062 13.617 10.1319 13.6303 10.0624 13.6576C9.99287 13.6849 9.9294 13.7257 9.87561 13.7775L8.39659 15.203C8.29077 15.305 8.14958 15.3621 8.0026 15.3623C7.85562 15.3625 7.71426 15.3058 7.60815 15.2041L6.1132 13.7752ZM14.0942 5.82887C13.9897 5.7201 13.8462 5.65732 13.6954 5.65433C13.5445 5.65135 13.3987 5.7084 13.2899 5.81295C13.1811 5.91749 13.1183 6.06096 13.1153 6.2118C13.1123 6.36264 13.1694 6.50848 13.274 6.61725L14.7041 8.10755C14.8059 8.21351 14.8628 8.35477 14.8628 8.50174C14.8628 8.64871 14.8059 8.78997 14.7041 8.89593L13.2728 10.3794C13.1681 10.488 13.1109 10.6338 13.1136 10.7846C13.1164 10.9355 13.179 11.079 13.2876 11.1837C13.3962 11.2884 13.542 11.3457 13.6929 11.3429C13.8437 11.3401 13.9873 11.2775 14.092 11.1689L15.5221 9.68545C15.8283 9.36782 15.9996 8.94395 16 8.50277C16.0004 8.06159 15.83 7.63739 15.5244 7.31917L14.0931 5.82887H14.0942ZM6.28727 5.086C5.83466 5.086 5.40059 5.26578 5.08054 5.58581C4.7605 5.90583 4.5807 6.33987 4.5807 6.79245V10.2053C4.5807 10.6579 4.7605 11.092 5.08054 11.412C5.40059 11.732 5.83466 11.9118 6.28727 11.9118H9.7004C10.153 11.9118 10.5871 11.732 10.9071 11.412C11.2272 11.092 11.407 10.6579 11.407 10.2053V6.79245C11.407 6.33987 11.2272 5.90583 10.9071 5.58581C10.5871 5.26578 10.153 5.086 9.7004 5.086H6.28727ZM5.71841 6.79245C5.71841 6.64159 5.77835 6.49691 5.88503 6.39023C5.99171 6.28356 6.1364 6.22363 6.28727 6.22363H9.7004C9.85127 6.22363 9.99597 6.28356 10.1026 6.39023C10.2093 6.49691 10.2693 6.64159 10.2693 6.79245V10.2053C10.2693 10.3562 10.2093 10.5009 10.1026 10.6076C9.99597 10.7142 9.85127 10.7742 9.7004 10.7742H6.28727C6.1364 10.7742 5.99171 10.7142 5.88503 10.6076C5.77835 10.5009 5.71841 10.3562 5.71841 10.2053V6.79245Z" fill="#7C7C7C"/>
</svg>
