<svg width="170" height="38" viewBox="0 0 170 38" fill="none" xmlns="http://www.w3.org/2000/svg">
<path d="M93.4663 32.4818H94.7871L93.78 37.8471H92.4592L93.4663 32.4818ZM93.5826 30.8958C93.6744 30.4829 94.08 30.1785 94.556 30.1785C95.032 30.1785 95.332 30.515 95.2509 30.9601C95.182 31.373 94.7642 31.6774 94.3019 31.6774C93.8152 31.6774 93.503 31.3409 93.5841 30.8958H93.5826Z" fill="#145A38"/>
<path d="M101.491 34.883L100.935 37.8486H99.6145L100.159 34.9595C100.332 34.025 99.9512 33.4714 99.0819 33.4714C98.1436 33.4714 97.3569 34.1122 97.1824 35.0238L96.6605 37.8471H95.3397L96.3468 32.4818H97.5284L97.412 33.1884C97.9799 32.6455 98.7099 32.3733 99.4737 32.3733C100.967 32.3733 101.766 33.4056 101.489 34.8815L101.491 34.883Z" fill="#145A38"/>
<path d="M108.916 32.4818L105.487 37.8471H104.085L102.673 32.4818H104.016L104.457 34.285L104.967 36.5868L106.321 34.285L107.445 32.4818H108.916Z" fill="#145A38"/>
<path d="M110.12 35.6217C110.074 36.414 110.63 36.9034 111.626 36.9034C112.286 36.9034 113.004 36.6862 113.445 36.3498L114.116 37.1206C113.434 37.6849 112.529 38 111.545 38C109.646 38 108.558 36.8483 108.87 35.1645C109.194 33.427 110.549 32.3733 112.344 32.3733C114.429 32.3733 115.24 33.7635 114.684 35.6202H110.122L110.12 35.6217ZM110.305 34.6766H113.64C113.734 33.8721 113.247 33.427 112.274 33.427C111.358 33.427 110.618 33.8935 110.305 34.6766Z" fill="#145A38"/>
<path d="M115.228 37.1527L115.91 36.2947C116.42 36.7291 116.988 36.9141 117.81 36.9141C118.563 36.9141 119.118 36.5991 119.118 36.1647C119.118 35.8389 118.725 35.6539 117.972 35.6217C116.64 35.5453 115.933 34.9809 115.933 34.0801C115.933 32.9942 117.034 32.3534 118.55 32.3534C119.408 32.3534 120.148 32.5813 120.751 33.037L120.092 33.84C119.675 33.5249 119.141 33.3628 118.517 33.3628C117.672 33.3628 117.22 33.5907 117.22 34.0143C117.22 34.3615 117.568 34.568 118.275 34.6337C119.734 34.7637 120.418 35.221 120.418 36.1219C120.418 37.2292 119.307 37.9786 117.742 37.9786C116.7 37.9786 115.82 37.6849 115.229 37.1527H115.228Z" fill="#145A38"/>
<path d="M123.497 35.9796C123.393 36.5333 123.532 36.8269 124.076 36.8269C124.342 36.8269 124.621 36.7612 124.852 36.6526L125.025 37.6635C124.561 37.8364 124.191 37.9235 123.751 37.9235C122.512 37.9235 121.945 37.2506 122.176 36.0668L122.651 33.5142H121.563L121.76 32.4818H122.848L123.104 31.0809L124.448 30.9509L124.158 32.4818H125.769L125.571 33.5142H123.961L123.497 35.9796Z" fill="#145A38"/>
<path d="M126.938 32.4818H128.259L127.252 37.8471H125.931L126.938 32.4818ZM127.054 30.8958C127.146 30.4829 127.552 30.1785 128.028 30.1785C128.504 30.1785 128.804 30.515 128.723 30.9601C128.654 31.373 128.236 31.6774 127.774 31.6774C127.287 31.6774 126.975 31.3409 127.056 30.8958H127.054Z" fill="#145A38"/>
<path d="M138.543 34.7423L137.952 37.8486H136.631L137.199 34.8081C137.349 33.9822 137.001 33.4729 136.225 33.4729C135.391 33.4729 134.754 34.0266 134.592 34.8632L134.037 37.8501H132.728L133.296 34.8096C133.446 33.9944 133.065 33.4744 132.276 33.4744C131.488 33.4744 130.852 34.0281 130.689 34.8647L130.134 37.8516H128.813L129.82 32.4864H131.002L130.908 33.0844C131.36 32.6394 131.986 32.3778 132.704 32.3778C133.525 32.3778 134.105 32.7143 134.337 33.2787C134.881 32.6822 135.622 32.3778 136.502 32.3778C138.077 32.3778 138.818 33.2787 138.541 34.7454L138.543 34.7423Z" fill="#145A38"/>
<path d="M140.837 35.6217C140.791 36.414 141.347 36.9034 142.343 36.9034C143.003 36.9034 143.72 36.6862 144.161 36.3498L144.833 37.1206C144.151 37.6849 143.246 38 142.262 38C140.362 38 139.274 36.8483 139.586 35.1645C139.911 33.427 141.265 32.3733 143.061 32.3733C145.145 32.3733 145.957 33.7635 145.401 35.6202H140.838L140.837 35.6217ZM141.022 34.6766H144.357C144.451 33.8721 143.964 33.427 142.99 33.427C142.075 33.427 141.334 33.8935 141.022 34.6766Z" fill="#145A38"/>
<path d="M152.337 34.883L151.782 37.8486H150.461L151.006 34.9595C151.179 34.025 150.798 33.4714 149.928 33.4714C148.99 33.4714 148.203 34.1122 148.029 35.0238L147.507 37.8471H146.186L147.193 32.4818H148.375L148.259 33.1884C148.826 32.6455 149.556 32.3733 150.32 32.3733C151.814 32.3733 152.613 33.4056 152.336 34.8815L152.337 34.883Z" fill="#145A38"/>
<path d="M155.452 35.9796C155.348 36.5333 155.487 36.8269 156.031 36.8269C156.297 36.8269 156.576 36.7612 156.807 36.6526L156.98 37.6635C156.516 37.8364 156.145 37.9235 155.706 37.9235C154.466 37.9235 153.9 37.2506 154.131 36.0668L154.606 33.5142H153.518L153.715 32.4818H154.803L155.059 31.0809L156.403 30.9509L156.113 32.4818H157.723L157.526 33.5142H155.916L155.452 35.9796Z" fill="#145A38"/>
<path d="M157.942 35.6646C157.942 33.7971 159.507 32.3626 161.51 32.3626C163.073 32.3626 164.104 33.2863 164.104 34.6643C164.104 36.544 162.575 37.9664 160.561 37.9664C158.986 37.9664 157.944 37.0426 157.944 35.6646H157.942ZM162.806 34.8173C162.806 34.0036 162.228 33.4714 161.359 33.4714C160.212 33.4714 159.251 34.3952 159.251 35.5025C159.251 36.3176 159.829 36.8606 160.71 36.8606C161.856 36.8606 162.806 35.9261 162.806 34.8188V34.8173Z" fill="#145A38"/>
<path d="M164.476 37.1527L165.159 36.2947C165.669 36.7291 166.236 36.9141 167.058 36.9141C167.811 36.9141 168.367 36.5991 168.367 36.1647C168.367 35.8389 167.974 35.6539 167.221 35.6217C165.889 35.5453 165.182 34.9809 165.182 34.0801C165.182 32.9942 166.282 32.3534 167.799 32.3534C168.656 32.3534 169.397 32.5813 170 33.037L169.34 33.84C168.924 33.5249 168.39 33.3628 167.765 33.3628C166.921 33.3628 166.469 33.5907 166.469 34.0143C166.469 34.3615 166.816 34.568 167.524 34.6337C168.982 34.7637 169.666 35.221 169.666 36.1219C169.666 37.2292 168.555 37.9786 166.991 37.9786C165.949 37.9786 165.069 37.6849 164.478 37.1527H164.476Z" fill="#145A38"/>
<path d="M0 16.351L3.9473 20.297L15.7938 8.45923L27.6464 20.3031L31.5937 16.3587L15.7999 0.576592L15.7907 0.584239L15.7846 0.578121L0 16.351Z" fill="#145A38"/>
<path d="M10.221 26.4269C10.221 26.4269 13.9571 22.715 15.7938 20.8812C19.7441 24.8286 17.3718 22.4473 21.3221 26.3963L25.2694 22.4519L15.7999 12.9986L15.7922 13.0062L15.7861 13.0001C12.6317 16.1522 6.29516 22.484 6.29516 22.484L10.2226 26.4253L10.221 26.4269Z" fill="#89A757"/>
<path d="M146.446 0.546003V26.5936H169.024V20.0828H152.884V0.546003H146.446Z" fill="#145A38"/>
<path d="M92.1806 0.55365H85.7293V26.5875H92.1806V0.55365Z" fill="#145A38"/>
<path d="M34.6609 0.55365V7.05216H42.8096V26.5875H49.3909V7.05216H57.5212V0.55365H34.6609Z" fill="#145A38"/>
<path d="M107.575 10.1905C105.23 9.95653 102.688 9.73783 102.688 7.80617C102.688 6.38075 104.91 5.74298 106.787 5.74298C108.943 5.74298 110.749 6.18498 112.304 7.09499L112.387 7.1424L116.605 3.00225L116.492 2.91661C113.783 0.8993 110.789 0 106.785 0C101.29 0 95.7269 2.67955 95.7269 7.80464C95.7269 12.9297 99.1461 15.4166 106.488 16.1675C109.655 16.4902 111.242 17.2259 111.242 18.6253C111.242 20.0247 109.333 21.0097 106.745 21.0097C103.781 21.0097 101.359 20.17 99.339 18.4433L99.2533 18.3684L94.9142 22.6324L95.0045 22.718C99.1875 26.7068 104.583 27.1381 106.707 27.1381C114.713 27.1381 118.296 22.9184 118.296 18.7369C118.296 12.607 112.465 10.7044 107.573 10.189" fill="#145A38"/>
<path d="M137.263 0.261531V15.7485C137.263 18.3255 135.172 20.4147 132.593 20.4147H132.148C129.567 20.4147 127.477 18.3255 127.477 15.7485V0.261531L121.035 0.281414V16.0956C121.035 22.0512 125.867 26.8796 131.826 26.8796H132.918C138.881 26.8796 143.711 22.0512 143.711 16.0956V0.281414L137.263 0.261531Z" fill="#145A38"/>
<path d="M82.9942 10.3175C82.9942 4.93238 78.6107 0.55365 73.2232 0.55365H60.2579V26.5875H66.7811V20.0813H71.7309L76.3945 26.5875H82.9529V25.9497L77.8929 18.8929C80.931 17.235 82.9958 14.0126 82.9958 10.3175M66.7749 7.0644H73.2247C75.0231 7.0644 76.4802 8.52041 76.4802 10.3175C76.4802 12.1145 75.0231 13.5706 73.2247 13.5706H66.7749V7.0644Z" fill="#145A38"/>
</svg>
