<svg width="549" height="346" viewBox="0 0 549 346" fill="none" xmlns="http://www.w3.org/2000/svg">
<line y1="66.5" x2="549" y2="66.5" stroke="#7C7C7C" stroke-opacity="0.1"/>
<line y1="97.5" x2="549" y2="97.5" stroke="#7C7C7C" stroke-opacity="0.1"/>
<line y1="129.5" x2="549" y2="129.5" stroke="#7C7C7C" stroke-opacity="0.1"/>
<line y1="161.5" x2="549" y2="161.5" stroke="#7C7C7C" stroke-opacity="0.1"/>
<line y1="193.5" x2="549" y2="193.5" stroke="#7C7C7C" stroke-opacity="0.1"/>
<line y1="224.5" x2="549" y2="224.5" stroke="#7C7C7C" stroke-opacity="0.1"/>
<line y1="256.5" x2="549" y2="256.5" stroke="#7C7C7C" stroke-opacity="0.1"/>
<line y1="288.5" x2="549" y2="288.5" stroke="#7C7C7C" stroke-opacity="0.1"/>
<line y1="320.5" x2="549" y2="320.5" stroke="#7C7C7C" stroke-opacity="0.1"/>
<line y1="34.5" x2="549" y2="34.5" stroke="#7C7C7C" stroke-opacity="0.1"/>
<line x1="61.9585" y1="2.18557e-08" x2="61.9585" y2="346" stroke="#7C7C7C" stroke-opacity="0.1"/>
<line x1="93.7017" y1="2.18557e-08" x2="93.7016" y2="346" stroke="#7C7C7C" stroke-opacity="0.1"/>
<line x1="125.445" y1="2.18557e-08" x2="125.445" y2="346" stroke="#7C7C7C" stroke-opacity="0.1"/>
<line x1="157.188" y1="2.18557e-08" x2="157.188" y2="346" stroke="#7C7C7C" stroke-opacity="0.1"/>
<line x1="188.931" y1="2.18557e-08" x2="188.931" y2="346" stroke="#7C7C7C" stroke-opacity="0.1"/>
<line x1="220.674" y1="2.18557e-08" x2="220.674" y2="346" stroke="#7C7C7C" stroke-opacity="0.1"/>
<line x1="252.417" y1="2.18557e-08" x2="252.417" y2="346" stroke="#7C7C7C" stroke-opacity="0.1"/>
<line x1="284.161" y1="2.18557e-08" x2="284.161" y2="346" stroke="#7C7C7C" stroke-opacity="0.1"/>
<line x1="315.904" y1="2.18557e-08" x2="315.904" y2="346" stroke="#7C7C7C" stroke-opacity="0.1"/>
<line x1="347.647" y1="2.18557e-08" x2="347.647" y2="346" stroke="#7C7C7C" stroke-opacity="0.1"/>
<line x1="379.39" y1="2.18557e-08" x2="379.39" y2="346" stroke="#7C7C7C" stroke-opacity="0.1"/>
<line x1="411.133" y1="2.18557e-08" x2="411.133" y2="346" stroke="#7C7C7C" stroke-opacity="0.1"/>
<line x1="442.876" y1="2.18557e-08" x2="442.876" y2="346" stroke="#7C7C7C" stroke-opacity="0.1"/>
<line x1="474.619" y1="2.18557e-08" x2="474.619" y2="346" stroke="#7C7C7C" stroke-opacity="0.1"/>
<line x1="506.362" y1="2.18557e-08" x2="506.362" y2="346" stroke="#7C7C7C" stroke-opacity="0.1"/>
</svg>
