<svg width="31" height="34" viewBox="0 0 31 34" fill="none" xmlns="http://www.w3.org/2000/svg">
<path d="M16.375 22.076V18.8H17.993C19.4946 18.7981 20.9342 18.2008 21.996 17.139C23.0578 16.0772 23.6551 14.6376 23.657 13.136V11.52C23.657 11.3054 23.5718 11.0997 23.42 10.948C23.2683 10.7962 23.0626 10.711 22.848 10.711H20.421C19.6663 10.7114 18.9193 10.8632 18.2244 11.1574C17.5294 11.4516 16.9005 11.8823 16.375 12.424V9.092H17.993C19.4946 9.09015 20.9342 8.49281 21.996 7.43101C23.0578 6.3692 23.6551 4.92962 23.657 3.428V1.809C23.657 1.59444 23.5718 1.38867 23.42 1.23695C23.2683 1.08524 23.0626 1 22.848 1H20.421C19.4387 1.00309 18.4743 1.26234 17.6228 1.75215C16.7714 2.24197 16.0624 2.94541 15.566 3.793C15.0695 2.94526 14.3604 2.24173 13.5087 1.75191C12.6571 1.26208 11.6924 1.00291 10.71 1H8.283C8.06844 1 7.86267 1.08524 7.71095 1.23695C7.55923 1.38867 7.474 1.59444 7.474 1.809V3.427C7.47585 4.92862 8.07319 6.3682 9.13499 7.43001C10.1968 8.49181 11.6364 9.08915 13.138 9.091H14.756V12.422C14.2304 11.8805 13.6015 11.45 12.9065 11.1559C12.2115 10.8619 11.4646 10.7102 10.71 10.71H8.283C8.17676 10.71 8.07156 10.7309 7.97341 10.7716C7.87526 10.8122 7.78607 10.8718 7.71095 10.947C7.63583 11.0221 7.57624 11.1113 7.53558 11.2094C7.49493 11.3076 7.474 11.4128 7.474 11.519V13.137C7.47612 14.6384 8.07357 16.0778 9.13535 17.1394C10.1971 18.201 11.6366 18.7981 13.138 18.8H14.756V22.074C5.855 22.465 1 29.094 1 32.559C1 32.7736 1.08523 32.9793 1.23695 33.1311C1.38867 33.2828 1.59444 33.368 1.809 33.368H29.322C29.5366 33.368 29.7423 33.2828 29.8941 33.1311C30.0458 32.9793 30.131 32.7736 30.131 32.559C30.131 29.094 25.276 22.465 16.375 22.076ZM20.421 12.328H22.039V13.137C22.0379 14.2097 21.6113 15.2382 20.8528 15.9968C20.0942 16.7553 19.0657 17.1819 17.993 17.183H16.375V16.374C16.3763 15.3014 16.8031 14.2732 17.5616 13.5149C18.3201 12.7565 19.3484 12.3301 20.421 12.329V12.328ZM20.421 2.618H22.039V3.427C22.0379 4.49974 21.6113 5.52824 20.8528 6.28679C20.0942 7.04533 19.0657 7.47194 17.993 7.473H16.375V6.664C16.3761 5.59126 16.8027 4.56276 17.5612 3.80422C18.3198 3.04568 19.3483 2.61906 20.421 2.618ZM9.092 2.618H10.71C11.7827 2.61906 12.8112 3.04568 13.5698 3.80422C14.3283 4.56276 14.7549 5.59126 14.756 6.664V7.473H13.138C12.0654 7.47194 11.0371 7.04547 10.2786 6.28714C9.52005 5.52881 9.09332 4.50057 9.092 3.428V2.618ZM9.092 12.328H10.71C11.7827 12.3291 12.8112 12.7557 13.5698 13.5142C14.3283 14.2728 14.7549 15.3013 14.756 16.374V17.183H13.138C12.0654 17.1819 11.0371 16.7555 10.2786 15.9971C9.52005 15.2388 9.09332 14.2106 9.092 13.138V12.328ZM2.728 31.75C3.456 28.812 7.803 23.658 15.566 23.658C23.329 23.658 27.675 28.811 28.4 31.75H2.728Z" fill="#7C7C7C"/>
<path fill-rule="evenodd" clip-rule="evenodd" d="M20.4194 0.500005L20.421 0.5L22.848 0.500002C23.1952 0.500002 23.5281 0.637916 23.7736 0.8834C24.0191 1.12888 24.157 1.46183 24.157 1.809V3.428C24.155 5.06202 23.505 6.62914 22.3496 7.78456C21.1941 8.93998 19.6276 9.58999 17.9936 9.592H16.875V11.3401C17.2347 11.0855 17.6216 10.8696 18.0294 10.697C18.786 10.3766 19.5992 10.2114 20.4208 10.211H22.848C23.1952 10.211 23.5281 10.3489 23.7736 10.5944C24.0191 10.8399 24.157 11.1728 24.157 11.52V13.136C24.155 14.77 23.505 16.3371 22.3496 17.4926C21.1941 18.648 19.6276 19.298 17.9936 19.3H16.875V21.6034C21.2204 21.9038 24.6064 23.6601 26.9293 25.7959C29.3144 27.9889 30.631 30.6361 30.631 32.559C30.631 32.9062 30.4931 33.2391 30.2476 33.4846C30.0021 33.7301 29.6692 33.868 29.322 33.868H1.809C1.46183 33.868 1.12888 33.7301 0.883397 33.4846C0.637911 33.2391 0.5 32.9062 0.5 32.559C0.5 30.6361 1.81661 27.9889 4.20168 25.7957C6.52458 23.6597 9.9106 21.9028 14.256 21.6015V19.3H13.138C11.5042 19.298 9.93721 18.6481 8.78182 17.4929C7.62643 16.3378 6.97631 14.7715 6.974 13.1377L6.974 11.519C6.974 11.3471 7.00786 11.1769 7.07364 11.0181C7.13943 10.8593 7.23585 10.715 7.3574 10.5934C7.47895 10.4718 7.62325 10.3754 7.78207 10.3096C7.94088 10.2439 8.1111 10.21 8.283 10.21H10.71C11.5315 10.2102 12.3448 10.3753 13.1014 10.6955C13.5093 10.8681 13.8963 11.0838 14.256 11.3384V9.591H13.138C11.504 9.58899 9.93686 8.93898 8.78144 7.78356C7.62602 6.62814 6.97602 5.06163 6.974 3.42762L6.974 1.809C6.974 1.46183 7.11191 1.12889 7.3574 0.8834C7.60288 0.637915 7.93583 0.500002 8.283 0.500002H10.7115C11.7809 0.503172 12.831 0.785288 13.758 1.31848C14.461 1.72279 15.0747 2.26085 15.566 2.89969C16.0572 2.261 16.6707 1.72303 17.3735 1.31875C18.3003 0.785568 19.3502 0.503361 20.4194 0.500005ZM8.283 1.5C8.20105 1.5 8.12245 1.53256 8.0645 1.59051C8.00656 1.64845 7.974 1.72705 7.974 1.809L7.974 3.42639C7.97579 4.79547 8.52045 6.10836 9.48855 7.07646C10.4566 8.04455 11.7692 8.58921 13.1382 8.591H15.256V13.655L14.3972 12.7703C13.9182 12.2768 13.345 11.8844 12.7117 11.6164C12.0783 11.3484 11.3977 11.2102 10.71 11.21H8.283C8.24243 11.21 8.20224 11.218 8.16475 11.2335C8.12726 11.2491 8.0932 11.2718 8.0645 11.3005C8.03581 11.3292 8.01305 11.3633 7.99752 11.4008C7.98199 11.4382 7.974 11.4784 7.974 11.519L7.974 13.1363C7.97602 14.5052 8.52078 15.8179 9.48887 16.7858C10.457 17.7538 11.7696 18.2983 13.1386 18.3H15.256V22.5525L14.7779 22.5735C10.4526 22.7635 7.12391 24.4671 4.87857 26.5318C2.61089 28.6171 1.5 31.0169 1.5 32.559C1.5 32.641 1.53256 32.7196 1.5905 32.7775C1.64845 32.8354 1.72705 32.868 1.809 32.868H29.322C29.404 32.868 29.4825 32.8354 29.5405 32.7775C29.5984 32.7196 29.631 32.641 29.631 32.559C29.631 31.0169 28.5201 28.6171 26.2525 26.5321C24.0071 24.4676 20.6784 22.7646 16.3532 22.5755L15.875 22.5546V18.3H17.9924C19.3616 18.2983 20.6743 17.7536 21.6425 16.7855C22.6106 15.8173 23.1553 14.5046 23.157 13.1354V11.52C23.157 11.4381 23.1244 11.3595 23.0665 11.3015C23.0085 11.2436 22.93 11.211 22.848 11.211H20.4212C19.7335 11.2114 19.0526 11.3497 18.4193 11.6178C17.7859 11.886 17.2128 12.2785 16.7339 12.7722L15.875 13.6574V8.592H17.9924C19.3615 8.59021 20.6744 8.04555 21.6425 7.07746C22.6106 6.10927 23.1553 4.79661 23.157 3.42739V1.809C23.157 1.72706 23.1244 1.64846 23.0665 1.59051C23.0085 1.53256 22.93 1.5 22.848 1.5H20.4218C19.5268 1.50295 18.648 1.73923 17.8721 2.18555C17.0961 2.632 16.4499 3.27316 15.9974 4.0457L15.566 4.78233L15.1346 4.0457C14.682 3.27302 14.0357 2.63178 13.2595 2.18533C12.4834 1.73899 11.6044 1.50278 10.7092 1.5H8.283ZM20.421 2.118L22.539 2.118V3.427C22.5378 4.63218 22.0585 5.78815 21.2063 6.64034C20.3541 7.49253 19.1987 7.97181 17.9935 7.973L15.875 7.973V6.664C15.8762 5.45882 16.3555 4.30285 17.2077 3.45066C18.0599 2.59847 19.2158 2.11919 20.421 2.118ZM8.592 2.118H10.71C11.9152 2.11919 13.0711 2.59847 13.9233 3.45066C14.7755 4.30285 15.2548 5.45833 15.256 6.66351V7.973H13.138C11.933 7.97181 10.7772 7.49268 9.92506 6.64074C9.0729 5.78879 8.59349 4.6336 8.592 3.42862V2.118ZM9.592 3.118V3.427C9.59316 4.36715 9.96721 5.26884 10.6321 5.93354C11.2968 6.59813 12.198 6.97194 13.138 6.973H14.256V6.6645C14.2551 5.72419 13.8811 4.82267 13.2162 4.15777C12.5514 3.49293 11.65 3.11899 10.7097 3.118H9.592ZM21.539 3.118L20.4215 3.118C19.4813 3.11899 18.5796 3.49293 17.9148 4.15777C17.2499 4.82267 16.8759 5.72419 16.875 6.6645V6.973L17.9925 6.973C18.9326 6.97194 19.8345 6.59801 20.4992 5.93323C21.1641 5.26834 21.5381 4.36681 21.539 3.42651V3.118ZM8.592 11.828H10.71C11.9152 11.8292 13.0711 12.3085 13.9233 13.1607C14.7755 14.0129 15.2548 15.1683 15.256 16.3735V17.683H13.138C11.933 17.6818 10.7772 17.2027 9.92506 16.3507C9.0729 15.4988 8.59349 14.3436 8.592 13.1386V11.828ZM9.592 12.828V13.137C9.59316 14.0772 9.96721 14.9788 10.6321 15.6435C11.2969 16.3083 12.1983 16.6821 13.1385 16.683H14.256V16.3745C14.2551 15.4342 13.8811 14.5327 13.2162 13.8678C12.5513 13.2029 11.6498 12.8289 10.7095 12.828H9.592ZM19.921 11.828H22.539V13.137C22.5378 14.3422 22.0585 15.4982 21.2063 16.3503C20.3541 17.2025 19.1987 17.6818 17.9935 17.683H15.875V16.374C15.8765 15.169 16.3559 14.0132 17.2081 13.1613C17.9416 12.4279 18.8998 11.9708 19.921 11.857V11.828ZM20.4215 12.829C19.4813 12.8299 18.58 13.2038 17.9151 13.8685C17.2502 14.5332 16.8762 15.4345 16.875 16.3746V16.683H17.9925C18.9328 16.6821 19.8343 16.3081 20.4992 15.6432C21.1641 14.9783 21.5381 14.0768 21.539 13.1365V12.828L20.4215 12.829ZM3.41311 31.25H27.7156C26.6308 28.4643 22.5614 24.158 15.566 24.158C8.57128 24.158 4.50075 28.4645 3.41311 31.25ZM2.24268 31.6297C3.02743 28.4627 7.57937 23.158 15.566 23.158C23.5525 23.158 28.1038 28.4616 28.8854 31.6303L29.0383 32.25H2.08898L2.24268 31.6297Z" fill="#7C7C7C"/>
</svg>
