<svg width="34" height="26" viewBox="0 0 34 26" fill="none" xmlns="http://www.w3.org/2000/svg">
<path d="M26.7322 23.9151H7.03516V14.0681H26.7352L26.7322 23.9151ZM9.84916 21.1031H23.9172V16.8821H9.84916V21.1031Z" fill="#7C7C7C"/>
<path d="M29.545 23.9149H23.918V12.6609C23.9196 11.542 24.3648 10.4694 25.1561 9.67833C25.9474 8.88724 27.0201 8.44224 28.139 8.44092H29.545C30.6638 8.44224 31.7364 8.88727 32.5275 9.67839C33.3186 10.4695 33.7636 11.5421 33.765 12.6609V19.6969C33.7634 20.8155 33.3182 21.8877 32.5271 22.6784C31.736 23.4692 30.6635 23.9139 29.545 23.9149ZM26.731 21.1029H29.545C29.9179 21.1024 30.2754 20.9542 30.5393 20.6906C30.8032 20.4271 30.9519 20.0698 30.953 19.6969V12.6609C30.9519 12.288 30.8032 11.9307 30.5393 11.6672C30.2754 11.4037 29.9179 11.2554 29.545 11.2549H28.139C27.766 11.2552 27.4083 11.4033 27.1444 11.6669C26.8804 11.9305 26.7318 12.2879 26.731 12.6609V21.1029Z" fill="#7C7C7C"/>
<path d="M9.849 23.9149H4.221C3.10237 23.9139 2.02981 23.4692 1.23853 22.6785C0.447254 21.8878 0.00185286 20.8156 0 19.6969V12.6609C0.00158781 11.542 0.446841 10.4694 1.23812 9.67833C2.02939 8.88724 3.1021 8.44224 4.221 8.44092H5.629C6.74773 8.44251 7.82018 8.88762 8.61124 9.67868C9.4023 10.4697 9.84741 11.5422 9.849 12.6609V23.9149ZM4.221 11.2549C3.84835 11.2557 3.49119 11.4041 3.22768 11.6676C2.96418 11.9311 2.81579 12.2883 2.815 12.6609V19.6969C2.81579 20.0696 2.96418 20.4267 3.22768 20.6902C3.49119 20.9537 3.84835 21.1021 4.221 21.1029H7.035V12.6609C7.03421 12.2883 6.88582 11.9311 6.62232 11.6676C6.35881 11.4041 6.00165 11.2557 5.629 11.2549H4.221Z" fill="#7C7C7C"/>
<path d="M29.5447 9.849H26.7327V5.627C26.7311 4.88005 26.4331 4.16426 25.9042 3.63684C25.3753 3.10941 24.6587 2.81347 23.9117 2.814H9.8497C9.10363 2.81453 8.38823 3.111 7.86049 3.63837C7.33275 4.16574 7.03576 4.88092 7.0347 5.627V9.848H4.2207V5.627C4.22256 4.13485 4.81627 2.70437 5.87157 1.64945C6.92687 0.594527 8.35755 0.00132309 9.8497 0H23.9117C25.4039 0.00132309 26.8345 0.594527 27.8898 1.64945C28.9451 2.70437 29.5388 4.13485 29.5407 5.627L29.5447 9.849Z" fill="#7C7C7C"/>
<path d="M7.0347 22.509H4.2207V25.323H7.0347V22.509Z" fill="#7C7C7C"/>
<path d="M29.5449 22.509H26.7329V25.323H29.5449V22.509Z" fill="#7C7C7C"/>
</svg>
