<svg width="80" height="73" viewBox="0 0 80 73" fill="none" xmlns="http://www.w3.org/2000/svg">
<path d="M75.9579 73H0.91617V71.1862H75.9579V73ZM76.874 65.9042H75.0417V22.5715H76.874V65.9042ZM67.4924 65.9042H65.6601V28.764H67.4924V65.9042ZM58.1109 65.9042H56.2785V44.2397H58.1109V65.9042ZM48.7293 65.9042H46.8969V47.3341H48.7293V65.9042ZM39.3477 65.9042H37.5153V44.2397H39.3477V65.9042ZM11.2066 65.9042H9.37426V47.3341H11.2066V65.9042ZM1.82501 65.9042H0V53.5229H1.83234V65.9042H1.82501ZM24.3591 63.7167C21.2661 63.7167 18.7522 61.2281 18.7522 58.1664V41.3012C17.7371 41.0219 16.7366 40.67 15.7581 40.2383L16.5021 38.5805C19.0014 39.6797 21.6436 40.2347 24.3591 40.2347C35.06 40.2347 43.7673 31.6153 43.7673 21.0225C43.7673 10.4296 35.0673 1.81384 24.3665 1.81384C13.6656 1.81384 4.95831 10.4332 4.95831 21.0261C4.95831 22.4808 5.14521 23.9863 5.51168 25.5063L3.73065 25.9271C3.3312 24.2692 3.12597 22.6186 3.12597 21.0261C3.12597 9.43199 12.6541 0 24.3665 0C36.0788 0 45.607 9.43199 45.607 21.0261C45.607 30.6975 38.9739 38.8671 29.9734 41.3085V58.1664C29.9734 61.2281 27.4595 63.7167 24.3665 63.7167H24.3591ZM20.5845 41.7148V58.1664C20.5845 60.2269 22.2776 61.9029 24.3591 61.9029C26.4407 61.9029 28.1338 60.2269 28.1338 58.1664V41.7184C25.6967 42.1538 23.0765 42.1646 20.5845 41.7184V41.7148ZM49.3706 42.0486C46.2776 42.0486 43.7636 39.56 43.7636 36.4982C43.7636 33.4364 46.2776 30.9478 49.3706 30.9478C50.5873 30.9478 51.7123 31.3324 52.6322 31.9853L53.2332 31.3904L54.5305 32.6746L53.9295 33.2695C54.5891 34.1801 54.9776 35.2938 54.9776 36.4982C54.9776 39.56 52.4636 42.0486 49.3706 42.0486ZM49.3706 32.7617C47.2891 32.7617 45.596 34.4377 45.596 36.4982C45.596 38.5587 47.2891 40.2347 49.3706 40.2347C51.4521 40.2347 53.1452 38.5587 53.1452 36.4982C53.1452 34.4377 51.4521 32.7617 49.3706 32.7617ZM5.60696 42.0486C2.51397 42.0486 0 39.56 0 36.5018C0 33.4437 2.51397 30.9514 5.60696 30.9514C6.82364 30.9514 7.94869 31.336 8.86853 31.989L22.9372 18.0623C22.2776 17.1517 21.8891 16.038 21.8891 14.8336C21.8891 11.7719 24.4031 9.28326 27.4961 9.28326C30.5891 9.28326 33.1031 11.7719 33.1031 14.8336C33.1031 16.038 32.7146 17.1517 32.055 18.0623L38.4828 24.4252L37.1855 25.7094L30.7577 19.3465C29.8378 19.9995 28.7128 20.384 27.4961 20.384C26.2794 20.384 25.1544 19.9995 24.2345 19.3465L10.1658 33.2732C10.8255 34.1837 11.2139 35.2974 11.2139 36.5018C11.2139 39.5636 8.69995 42.0522 5.60696 42.0522V42.0486ZM5.60696 32.7617C3.52542 32.7617 1.83234 34.4377 1.83234 36.4982C1.83234 38.5587 3.52542 40.2347 5.60696 40.2347C7.6885 40.2347 9.38159 38.5587 9.38159 36.4982C9.38159 34.4377 7.6885 32.7617 5.60696 32.7617ZM27.4924 11.0971C25.4109 11.0971 23.7178 12.7731 23.7178 14.8336C23.7178 16.8942 25.4109 18.5701 27.4924 18.5701C29.574 18.5701 31.2671 16.8942 31.2671 14.8336C31.2671 12.7731 29.574 11.0971 27.4924 11.0971ZM57.9386 29.3081L56.6413 28.0239L68.1301 16.6511L69.4274 17.9353L57.9386 29.3081ZM74.393 17.2859C71.3037 17.2859 68.7861 14.7973 68.7861 11.7356C68.7861 8.67381 71.3 6.18521 74.393 6.18521C77.486 6.18521 80 8.67381 80 11.7356C80 14.7973 77.486 17.2859 74.393 17.2859ZM74.393 7.99906C72.3115 7.99906 70.6184 9.67505 70.6184 11.7356C70.6184 13.7961 72.3115 15.4721 74.393 15.4721C76.4746 15.4721 78.1677 13.7961 78.1677 11.7356C78.1677 9.67505 76.4746 7.99906 74.393 7.99906Z" fill="#FACCA1"/>
</svg>
