<svg width="63" height="69" viewBox="0 0 63 69" fill="none" xmlns="http://www.w3.org/2000/svg">
<path d="M52.7766 69C48.5395 69 44.9828 67.4998 43.4124 65.3049C41.8454 67.4998 38.2852 69 34.0481 69C29.811 69 26.2543 67.4998 24.6838 65.3049C23.1168 67.4998 19.5567 69 15.3196 69C9.58763 69 5.09622 66.2555 5.09622 62.754V56.0275C5.09622 52.526 9.58763 49.7815 15.3196 49.7815C18.9072 49.7815 22.0069 50.8565 23.8247 52.5156V42.5711C23.8247 39.0696 28.3162 36.3251 34.0481 36.3251C37.6323 36.3251 40.732 37.4001 42.5533 39.0592V29.1147C42.5533 25.6132 47.0447 22.8687 52.7766 22.8687C58.5086 22.8687 63 25.6132 63 29.1147V62.7505C63 66.252 58.5086 68.9965 52.7766 68.9965V69ZM44.2715 62.754C44.2715 65.2012 48.165 67.2717 52.7766 67.2717C57.3883 67.2717 61.2818 65.2012 61.2818 62.754V59.5394C59.4639 61.202 56.3643 62.2735 52.7766 62.2735C49.189 62.2735 46.0893 61.1985 44.2715 59.5394V62.754ZM25.543 62.754C25.543 65.2012 29.4364 67.2717 34.0481 67.2717C38.6598 67.2717 42.5533 65.2012 42.5533 62.754V59.5394C40.7354 61.202 37.6357 62.2735 34.0481 62.2735C30.4605 62.2735 27.3608 61.1985 25.543 59.5394V62.754ZM6.81787 59.5394V62.754C6.81787 65.2012 10.7113 67.2717 15.323 67.2717C19.9347 67.2717 23.8282 65.2012 23.8282 62.754V59.5394C22.0103 61.202 18.9107 62.2735 15.323 62.2735C11.7354 62.2735 8.63918 61.1985 6.81787 59.5394ZM44.2715 56.0275C44.2715 58.4748 48.165 60.5452 52.7766 60.5452C57.3883 60.5452 61.2818 58.4748 61.2818 56.0275V52.8094C59.4639 54.472 56.3643 55.5436 52.7766 55.5436C49.189 55.5436 46.0893 54.4686 44.2715 52.8094V56.0275ZM25.543 56.0275C25.543 58.4748 29.4364 60.5452 34.0481 60.5452C38.6598 60.5452 42.5533 58.4748 42.5533 56.0275V52.8094C40.7354 54.472 37.6357 55.5436 34.0481 55.5436C30.4605 55.5436 27.3608 54.4686 25.543 52.8094V56.0275ZM15.3196 51.5098C10.7113 51.5098 6.81443 53.5803 6.81443 56.0275C6.81443 58.4748 10.7079 60.5452 15.3196 60.5452C19.9313 60.5452 23.8247 58.4748 23.8247 56.0275C23.8247 53.5803 19.9313 51.5098 15.3196 51.5098ZM44.268 49.301C44.268 51.7483 48.1615 53.8188 52.7732 53.8188C57.3849 53.8188 61.2784 51.7483 61.2784 49.301V46.0864C59.4605 47.749 56.3608 48.8206 52.7732 48.8206C49.1856 48.8206 46.0859 47.7456 44.268 46.0864V49.301ZM25.5395 49.301C25.5395 51.7483 29.433 53.8188 34.0447 53.8188C38.6564 53.8188 42.5498 51.7483 42.5498 49.301V46.0864C40.732 47.749 37.6323 48.8206 34.0447 48.8206C30.457 48.8206 27.3574 47.7456 25.5395 46.0864V49.301ZM44.268 42.5745C44.268 45.0218 48.1615 47.0923 52.7732 47.0923C57.3849 47.0923 61.2784 45.0218 61.2784 42.5745V39.3565C59.4605 41.0191 56.3608 42.0906 52.7732 42.0906C49.1856 42.0906 46.0859 41.0156 44.268 39.3565V42.5745ZM34.0447 38.0568C29.433 38.0568 25.5395 40.1273 25.5395 42.5745C25.5395 45.0218 29.433 47.0923 34.0447 47.0923C38.6564 47.0923 42.5498 45.0218 42.5498 42.5745C42.5498 40.1273 38.6564 38.0568 34.0447 38.0568ZM44.268 35.8481C44.268 38.2953 48.1615 40.3658 52.7732 40.3658C57.3849 40.3658 61.2784 38.2953 61.2784 35.8481V32.63C59.4605 34.2926 56.3608 35.3641 52.7732 35.3641C49.1856 35.3641 46.0859 34.2892 44.268 32.63V35.8481ZM52.7732 24.6038C48.1615 24.6038 44.268 26.6743 44.268 29.1216C44.268 31.5688 48.1615 33.6393 52.7732 33.6393C57.3849 33.6393 61.2784 31.5688 61.2784 29.1216C61.2784 26.6743 57.3849 24.6038 52.7732 24.6038ZM1.21649 44.531L0 43.3073L16.0515 27.1617C16.3883 26.823 16.9313 26.823 17.268 27.1617L23.3505 33.2764L45.4811 11.0161C45.8179 10.6773 46.3608 10.6773 46.6976 11.0161L50.5808 14.922V1.72828H37.4605L41.3436 5.6342C41.6804 5.97295 41.6804 6.51909 41.3436 6.85783L23.9553 24.3481C23.6186 24.6868 23.0756 24.6868 22.7388 24.3481L16.6564 18.2334L1.21649 33.7672L0 32.5436L16.0515 16.398C16.3883 16.0592 16.9313 16.0592 17.268 16.398L23.3505 22.5126L39.5258 6.24256L34.7835 1.4725C34.5361 1.22708 34.4639 0.853772 34.5979 0.532311C34.732 0.210851 35.0447 0 35.3918 0H51.4433C51.9175 0 52.3024 0.387136 52.3024 0.864142V17.0098C52.3024 17.3589 52.0928 17.6734 51.7732 17.8082C51.4536 17.943 51.0825 17.867 50.8385 17.6216L46.0962 12.8515L23.9656 35.1118C23.6289 35.4506 23.0859 35.4506 22.7491 35.1118L16.6667 28.9971L1.21649 44.531Z" fill="#FACCA1"/>
</svg>
