<svg width="80" height="69" viewBox="0 0 80 69" fill="none" xmlns="http://www.w3.org/2000/svg">
<path d="M71.2258 68.1978H39.5699C38.2211 68.1978 37.1269 67.1037 37.1269 65.7548V38.8473H38.8473V65.7548C38.8473 66.154 39.1708 66.4774 39.5699 66.4774H71.2258C71.6249 66.4774 71.9484 66.154 71.9484 65.7548V61.8667H45.9011C44.5523 61.8667 43.4581 60.769 43.4581 59.4237V35.6817H45.1785V50.6839C50.2056 51.1002 54.2245 55.1191 54.6409 60.1462H68.8206C69.237 55.1191 73.2559 51.1002 78.283 50.6839V11.1828C73.2559 10.7665 69.237 6.74753 68.8206 1.72043H54.6409C54.2245 6.74753 50.2056 10.7665 45.1785 11.1828V13.5226H43.4581V8.05161H39.5699C39.1708 8.05161 38.8473 8.37505 38.8473 8.77419V13.5226H37.1269V8.77419C37.1269 7.42538 38.2245 6.33118 39.5699 6.33118H43.4581V2.44301C43.4581 1.09419 44.5557 0 45.9011 0H77.557C78.9058 0 80 1.09763 80 2.44301V59.4237C80 60.7725 78.9058 61.8667 77.557 61.8667H73.6688V65.7548C73.6688 67.1037 72.5746 68.1978 71.2258 68.1978ZM70.5445 60.1462H77.557C77.9561 60.1462 78.2796 59.8228 78.2796 59.4237V52.4112C74.2021 52.8172 70.9505 56.0688 70.5445 60.1462ZM45.1785 52.4112V59.4237C45.1785 59.8228 45.5019 60.1462 45.9011 60.1462H52.9135C52.5075 56.0688 49.2559 52.8172 45.1785 52.4112ZM45.9011 1.72043C45.5019 1.72043 45.1785 2.04387 45.1785 2.44301V9.45548C49.2559 9.04946 52.5075 5.79785 52.9135 1.72043H45.9011ZM70.5445 1.72043C70.9505 5.79785 74.2021 9.04946 78.2796 9.45548V2.44301C78.2796 2.04387 77.9561 1.72043 77.557 1.72043H70.5445ZM31.6559 61.8667H22.7819C20.1325 61.8667 17.5656 61.089 15.3634 59.6198C14.4619 59.0176 13.4125 58.7011 12.3286 58.7011H10.357V61.0065C10.357 61.4813 9.97161 61.8667 9.49677 61.8667H0V60.1462H8.63656V27.0452H0V25.3247H9.49677C9.97161 25.3247 10.357 25.7101 10.357 26.1849V28.4903H12.1359C13.3092 28.4903 14.4757 28.1015 15.4185 27.3961L23.0159 21.6981C25.3385 19.9535 28.2219 18.9935 31.1295 18.9935H55.3979C56.7467 18.9935 57.8409 20.0912 57.8409 21.4366C57.8409 26.2744 53.9045 30.2108 49.0667 30.2108H38.9953C37.2026 30.2108 35.6439 31.3359 35.2 32.9462C33.5931 38.7923 28.2323 42.8731 22.1626 42.8731V41.1527C27.4615 41.1527 32.1411 37.5914 33.5415 32.4886C34.1918 30.1351 36.4318 28.4903 38.9953 28.4903H49.0667C52.9548 28.4903 56.1204 25.3247 56.1204 21.4366C56.1204 21.0374 55.797 20.714 55.3979 20.714H31.1295C28.5901 20.714 26.0748 21.5535 24.0482 23.0744L16.4508 28.7725C15.212 29.7015 13.6809 30.2108 12.1359 30.2108H10.357V56.9806H12.3286C13.7531 56.9806 15.1329 57.397 16.3166 58.1884C18.2366 59.4684 20.4731 60.1462 22.7819 60.1462H31.6559V61.8667ZM61.729 42.8731C57.1492 42.8731 52.9204 40.172 50.9523 35.9914L52.511 35.2585C54.1936 38.837 57.8133 41.1492 61.729 41.1492C67.3652 41.1492 71.9484 36.566 71.9484 30.9299C71.9484 25.8168 68.1256 21.4641 63.0538 20.8069L63.274 19.1002C69.1991 19.8675 73.6688 24.9531 73.6688 30.9299C73.6688 37.5123 68.3114 42.8697 61.729 42.8697V42.8731Z" fill="#FACCA1"/>
</svg>
