<svg width="135" height="85" viewBox="0 0 135 85" fill="none" xmlns="http://www.w3.org/2000/svg">
<path d="M80.3975 72.9604C80.068 72.9604 79.7385 72.678 79.1266 72.4897C78.6088 72.3014 77.9969 72.1602 77.2438 72.1602C75.3139 72.1602 74.3724 72.9134 74.3724 74.2314C74.3724 75.1728 75.0785 75.7376 76.2082 76.1142C77.4791 76.5849 78.7971 76.7732 80.021 77.4322C80.9153 77.95 81.6685 78.8443 81.6685 80.2094C81.6685 82.61 79.7856 84.0222 77.1026 84.0222C75.7846 84.0222 74.3254 83.5985 73.431 83.1278C73.0545 82.9395 72.7249 82.6571 72.7249 82.2805C72.7249 81.8569 73.0544 81.5274 73.4781 81.5274C73.8076 81.5274 73.9959 81.8569 74.8431 82.2335C75.408 82.5159 76.1611 82.7512 77.1026 82.7512C79.1266 82.7512 80.068 81.7157 80.068 80.3506C80.068 79.3621 79.362 78.7973 78.4676 78.3736C77.3379 77.9029 76.067 77.7146 74.749 77.0556C73.6193 76.4908 72.8662 75.6435 72.8662 74.2314C72.8662 72.1132 74.4666 70.7952 77.4321 70.7952C78.4206 70.7952 79.5973 70.9835 80.3975 71.36C80.8683 71.5483 81.2448 71.8307 81.2448 72.2544C81.2448 72.678 80.9624 72.9604 80.5388 72.9604" fill="white"/>
<path d="M92.0711 81.5274C92.6831 80.8213 93.0126 79.8328 93.0126 78.5619V71.5483C93.0126 71.1717 93.342 70.7952 93.7657 70.7952C94.1893 70.7952 94.5188 71.1247 94.5188 71.5483V78.7502C94.5188 80.2565 94.0952 81.5274 93.295 82.3747C92.3535 83.4102 90.9414 83.9751 89.1056 83.9751C87.2699 83.9751 85.8577 83.4102 84.9163 82.3747C84.1161 81.4803 83.6925 80.2094 83.6925 78.7502V71.5483C83.6925 71.1717 84.022 70.7952 84.4456 70.7952C84.8692 70.7952 85.1987 71.1247 85.1987 71.5483V78.5619C85.1987 79.8328 85.5282 80.8213 86.1402 81.5274C86.8462 82.2805 87.8347 82.6571 89.1056 82.6571C90.3766 82.6571 91.3651 82.2805 92.0711 81.5274Z" fill="white"/>
<path d="M97.4843 71.5483C97.4843 71.1717 97.8138 70.7952 98.2374 70.7952C98.661 70.7952 98.9905 71.1247 98.9905 71.5483V83.269C98.9905 83.6456 98.661 84.0222 98.2374 84.0222C97.8138 84.0222 97.4843 83.6927 97.4843 83.269V71.5483Z" fill="white"/>
<path d="M107.087 72.3482V83.3158C107.087 83.6923 106.757 84.0689 106.334 84.0689C105.91 84.0689 105.581 83.7394 105.581 83.3158V72.3482H101.674C101.297 72.3482 101.015 72.0657 101.015 71.6892C101.015 71.3126 101.297 71.0302 101.674 71.0302H110.994C111.37 71.0302 111.653 71.3126 111.653 71.6892C111.653 72.0657 111.37 72.3482 110.994 72.3482H107.087Z" fill="white"/>
<path d="M114.759 82.5154H121.961C122.338 82.5154 122.62 82.7979 122.62 83.1744C122.62 83.551 122.338 83.8334 121.961 83.8334H114.006C113.583 83.8334 113.253 83.5039 113.253 83.0803V71.6891C113.253 71.3125 113.583 70.9359 114.006 70.9359H121.961C122.338 70.9359 122.62 71.2184 122.62 71.5949C122.62 71.9715 122.338 72.2539 121.961 72.2539H114.759V76.6316H120.973C121.349 76.6316 121.632 76.9611 121.632 77.2906C121.632 77.62 121.349 77.9495 120.973 77.9495H114.759V82.5154Z" fill="white"/>
<path d="M131.893 72.9604C131.564 72.9604 131.234 72.678 130.622 72.4897C130.105 72.3014 129.493 72.1602 128.74 72.1602C126.81 72.1602 125.868 72.9134 125.868 74.2314C125.868 75.1728 126.574 75.7376 127.704 76.1142C128.975 76.5849 130.293 76.7732 131.517 77.4322C132.411 77.95 133.164 78.8443 133.164 80.2094C133.164 82.61 131.281 84.0222 128.598 84.0222C127.28 84.0222 125.821 83.5985 124.927 83.1278C124.55 82.9395 124.221 82.6571 124.221 82.2805C124.221 81.8569 124.55 81.5274 124.974 81.5274C125.303 81.5274 125.492 81.8569 126.339 82.2335C126.904 82.5159 127.657 82.7512 128.598 82.7512C130.622 82.7512 131.564 81.7157 131.564 80.3506C131.564 79.3621 130.858 78.7973 129.963 78.3736C128.834 77.9029 127.563 77.7146 126.245 77.0556C125.115 76.4908 124.362 75.6435 124.362 74.2314C124.362 72.1132 125.962 70.7952 128.928 70.7952C129.916 70.7952 131.093 70.9835 131.893 71.36C132.364 71.5483 132.741 71.8307 132.741 72.2544C132.741 72.678 132.458 72.9604 132.035 72.9604" fill="white"/>
<path d="M44.1056 47.6832C43.9644 45.8004 43.3054 44.1058 43.5879 42.2229C43.6349 41.7522 43.9644 41.5169 44.341 41.4698C43.5408 37.3746 41.5167 33.8443 38.1747 30.8788C36.8096 29.655 35.3975 28.6665 33.8441 27.8192C34.0795 27.6309 34.3148 27.3955 34.5973 27.1602C38.0335 24.1006 39.7751 20.3349 39.7751 15.9102C39.7751 11.4855 38.0335 7.7198 34.5973 4.70725C31.1611 1.6947 26.9718 0.141351 21.9822 0.141351C16.9927 0.141351 12.8033 1.64763 9.36716 4.70725C7.24895 6.5901 5.78975 8.75537 4.98954 11.156H12.5209C12.9446 10.5441 13.5094 9.97922 14.1213 9.46144C16.2866 7.7198 18.8755 6.82545 21.9822 6.82545C25.0889 6.82545 27.7249 7.7198 29.8431 9.46144C32.0084 11.2031 33.0439 13.3683 33.0439 15.9102C33.0439 18.452 31.9613 20.6173 29.8431 22.406C27.7249 24.1476 25.0889 25.042 21.9822 25.042H21.0879V31.679H21.9822C26.5481 31.679 30.3609 32.997 33.4205 35.5859C36.4331 38.2219 37.9393 41.4698 37.9393 45.3296C37.9393 49.1895 36.4331 52.4844 33.4205 55.1204C30.3609 57.7564 26.5481 59.0273 21.9822 59.0273C17.4163 59.0273 13.6506 57.7093 10.591 55.1204C9.03766 53.8024 7.86088 52.2491 7.10774 50.5545H0C0.941423 54.1319 2.87134 57.2386 5.78975 59.9217C10.1203 63.7815 15.4864 65.7585 21.9822 65.7585C28.478 65.7585 33.8441 63.8286 38.1747 59.9217C41.7521 56.7209 43.8703 52.8139 44.4822 48.2951C44.2939 48.1539 44.1527 47.9185 44.1056 47.5891" fill="white"/>
<path d="M68.9592 28.4783C68.7239 30.0787 68.5827 31.7262 68.5827 33.4207C68.5827 40.7638 71.0304 47.5891 75.0785 53.1435C75.3609 52.7199 75.6433 52.2963 75.8787 51.8726C77.0555 49.7544 77.7145 47.5421 77.9498 45.3297C76.2082 41.8935 75.2197 38.0808 75.1256 34.0797C73.5722 31.8203 71.5011 29.8433 68.9592 28.5253" fill="white"/>
<path d="M101.768 0.0471171C87.9759 0.0471171 75.9728 8.80235 71.0303 20.9938C70.8891 21.3233 70.7479 21.6998 70.6067 22.0764C72.6778 23.0178 74.5607 24.2417 76.3023 25.748C76.4906 25.1831 76.6789 24.6182 76.8671 24.1005C80.727 14.0272 90.5178 6.68415 101.768 6.68415C116.266 6.68415 128.316 18.8756 128.316 33.4676C128.316 48.0597 116.172 60.1569 101.768 60.1569C95.2249 60.1569 89.1527 57.7093 84.4927 53.6611C83.9749 53.1904 83.4571 52.7668 82.9864 52.249C82.6098 53.1904 82.1391 54.1789 81.5743 55.1203C80.9623 56.203 80.3033 57.1915 79.5502 58.1329C79.9268 58.4624 80.3033 58.839 80.727 59.1685C86.4697 63.9697 93.8598 66.8881 101.815 66.8881C119.89 66.8881 135 51.7783 135 33.5147C135 15.2511 119.843 0.0471171 101.768 0.0471171Z" fill="white"/>
<path d="M75.1255 33.4203C75.1255 33.4203 75.1255 33.844 75.1255 34.0322C77.0083 36.8565 78.0439 40.1986 78.0439 43.4935C78.0439 44.1055 78.0439 44.6703 77.9497 45.2822C78.4675 46.2707 78.9853 47.2122 79.5972 48.1065C80.5857 49.5657 81.7154 50.9308 82.9393 52.1546C84.1631 49.2362 84.6339 46.2707 84.6339 43.5406C84.6339 36.7153 81.3859 30.1253 76.2552 25.7007C75.7374 27.4423 75.3608 29.231 75.2196 31.0668C75.1725 31.8199 75.1255 32.6201 75.1255 33.4203Z" fill="white"/>
<path d="M82.9864 52.2019C81.7625 50.9781 80.6328 49.613 79.6443 48.1538C79.0324 47.2594 78.4675 46.2709 77.9968 45.3295C77.7615 47.5889 77.1025 49.7542 75.9257 51.8724C75.6903 52.3431 75.4079 52.7668 75.1255 53.1433C75.455 53.614 75.7845 54.0377 76.161 54.4613C77.1966 55.7322 78.3734 56.9561 79.5972 58.0858C80.3504 57.1444 81.0094 56.1559 81.6213 55.0732C82.1862 54.1318 82.6569 53.1904 83.0334 52.2019" fill="white"/>
<path d="M68.9592 28.4783C71.5011 29.7963 73.6192 31.7258 75.1255 34.0322C75.1255 33.844 75.1255 33.6086 75.1255 33.4203C75.1255 32.6201 75.1255 31.867 75.2196 31.0668C75.4079 29.231 75.7374 27.4423 76.2552 25.7007C74.5606 24.2414 72.6308 22.971 70.5597 22.0295C69.9478 23.7241 69.43 25.4657 69.1005 27.2544C69.0063 27.631 68.9593 28.0547 68.9122 28.4783" fill="white"/>
<path d="M61.1454 70.8892C59.1684 70.8892 57.521 69.2888 57.521 67.2647C57.521 65.2406 59.1214 63.6402 61.1454 63.6402C63.1695 63.6402 64.7699 65.2406 64.7699 67.2647C64.7699 69.2888 63.1695 70.8892 61.1454 70.8892ZM79.5502 58.0858C78.3264 56.9561 77.1967 55.7793 76.1141 54.4613C75.7846 54.0377 75.408 53.5672 75.0785 53.1435C71.7835 57.8977 66.5586 60.2982 61.0513 60.2982C53.1433 60.2982 44.3881 54.1319 44.3881 43.635C44.3881 33.1381 52.908 26.6894 61.2396 26.6894C64.1109 26.6894 66.7469 27.3486 68.9592 28.5253C69.0063 28.1017 69.1005 27.7249 69.1475 27.3013C69.477 25.5126 69.9948 23.771 70.6067 22.0764C67.7824 20.8055 64.6758 20.0523 61.3808 20.0523C59.2155 20.0523 57.0502 20.3348 54.6967 20.9938C48.4833 23.0178 43.8703 26.6423 40.9049 31.8672C38.8337 35.5388 37.8452 39.4457 37.8452 43.3526C37.8452 49.4247 40.2929 55.3557 44.5293 59.7333L57.0973 72.3013C59.3567 74.5607 63.0754 74.5607 65.3348 72.3013L79.5502 58.1329L79.5502 58.0858Z" fill="white"/>
<path d="M99.2259 70.3712C99.2259 70.3712 98.8023 70.23 98.7081 70.0417C98.5669 69.7593 98.7081 69.3827 98.9905 69.2415L101.627 67.8764C101.909 67.7352 102.286 67.8764 102.427 68.1589C102.568 68.4413 102.427 68.8179 102.144 68.9591L99.5083 70.3241C99.5083 70.3241 99.32 70.3712 99.2259 70.3712Z" fill="white"/>
<path d="M54.2731 19.6757C54.6496 19.5816 55.0262 19.4874 55.4028 19.3933L66.4645 0H58.886L44.4823 25.1831C47.1653 22.7824 50.4603 20.8996 54.2731 19.6757Z" fill="white"/>
</svg>
