<svg width="170" height="106" viewBox="0 0 170 106" fill="none" xmlns="http://www.w3.org/2000/svg">
<path d="M101.241 91.8761C100.826 91.8761 100.412 91.5205 99.6409 91.2834C98.9889 91.0463 98.2183 90.8684 97.27 90.8684C94.8397 90.8684 93.6542 91.8168 93.6542 93.4765C93.6542 94.662 94.5433 95.3733 95.9659 95.8475C97.5663 96.4403 99.226 96.6774 100.767 97.5072C101.893 98.1592 102.842 99.2855 102.842 101.004C102.842 104.027 100.471 105.806 97.0921 105.806C95.4324 105.806 93.5949 105.272 92.4687 104.679C91.9945 104.442 91.5796 104.087 91.5796 103.613C91.5796 103.079 91.9945 102.664 92.528 102.664C92.9429 102.664 93.18 103.079 94.2469 103.553C94.9582 103.909 95.9066 104.205 97.0921 104.205C99.6409 104.205 100.826 102.901 100.826 101.182C100.826 99.9375 99.9373 99.2262 98.8111 98.6927C97.3885 98.1 95.7881 97.8629 94.1284 97.033C92.7058 96.3217 91.7574 95.2548 91.7574 93.4765C91.7574 90.8092 93.7727 89.1495 97.507 89.1495C98.7518 89.1495 100.234 89.3866 101.241 89.8608C101.834 90.0979 102.308 90.4535 102.308 90.987C102.308 91.5205 101.953 91.8761 101.419 91.8761" fill="white"/>
<path d="M115.941 102.664C116.712 101.775 117.127 100.53 117.127 98.9298V90.0979C117.127 89.6237 117.542 89.1495 118.075 89.1495C118.609 89.1495 119.024 89.5644 119.024 90.0979V99.1669C119.024 101.064 118.49 102.664 117.483 103.731C116.297 105.035 114.519 105.746 112.207 105.746C109.895 105.746 108.117 105.035 106.932 103.731C105.924 102.605 105.391 101.004 105.391 99.1669V90.0979C105.391 89.6237 105.805 89.1495 106.339 89.1495C106.872 89.1495 107.287 89.5644 107.287 90.0979V98.9298C107.287 100.53 107.702 101.775 108.473 102.664C109.362 103.613 110.607 104.087 112.207 104.087C113.808 104.087 115.052 103.613 115.941 102.664Z" fill="white"/>
<path d="M122.758 90.0979C122.758 89.6237 123.173 89.1495 123.706 89.1495C124.24 89.1495 124.655 89.5644 124.655 90.0979V104.857C124.655 105.331 124.24 105.806 123.706 105.806C123.173 105.806 122.758 105.391 122.758 104.857V90.0979Z" fill="white"/>
<path d="M134.85 91.1051V104.916C134.85 105.39 134.435 105.865 133.902 105.865C133.368 105.865 132.953 105.45 132.953 104.916V91.1051H128.033C127.559 91.1051 127.204 90.7495 127.204 90.2753C127.204 89.8011 127.559 89.4454 128.033 89.4454H139.77C140.244 89.4454 140.6 89.8011 140.6 90.2753C140.6 90.7495 140.244 91.1051 139.77 91.1051H134.85Z" fill="white"/>
<path d="M144.512 103.908H153.581C154.055 103.908 154.411 104.264 154.411 104.738C154.411 105.212 154.055 105.568 153.581 105.568H143.563C143.03 105.568 142.615 105.153 142.615 104.62V90.2751C142.615 89.8009 143.03 89.3267 143.563 89.3267H153.581C154.055 89.3267 154.411 89.6824 154.411 90.1566C154.411 90.6308 154.055 90.9865 153.581 90.9865H144.512V96.499H152.336C152.81 96.499 153.166 96.9139 153.166 97.3288C153.166 97.7438 152.81 98.1587 152.336 98.1587H144.512V103.908Z" fill="white"/>
<path d="M166.088 91.8761C165.673 91.8761 165.258 91.5205 164.488 91.2834C163.836 91.0463 163.065 90.8684 162.117 90.8684C159.686 90.8684 158.501 91.8168 158.501 93.4765C158.501 94.662 159.39 95.3733 160.813 95.8475C162.413 96.4403 164.073 96.6774 165.614 97.5072C166.74 98.1592 167.688 99.2855 167.688 101.004C167.688 104.027 165.317 105.806 161.939 105.806C160.279 105.806 158.442 105.272 157.315 104.679C156.841 104.442 156.426 104.087 156.426 103.613C156.426 103.079 156.841 102.664 157.375 102.664C157.79 102.664 158.027 103.079 159.094 103.553C159.805 103.909 160.753 104.205 161.939 104.205C164.488 104.205 165.673 102.901 165.673 101.182C165.673 99.9375 164.784 99.2262 163.658 98.6927C162.235 98.1 160.635 97.8629 158.975 97.033C157.552 96.3217 156.604 95.2548 156.604 93.4765C156.604 90.8092 158.619 89.1495 162.354 89.1495C163.598 89.1495 165.08 89.3866 166.088 89.8608C166.681 90.0979 167.155 90.4535 167.155 90.987C167.155 91.5205 166.799 91.8761 166.266 91.8761" fill="white"/>
<path d="M55.5404 60.0455C55.3626 57.6745 54.5328 55.5406 54.8884 53.1696C54.9477 52.5769 55.3626 52.2805 55.8368 52.2212C54.8292 47.0643 52.2803 42.6187 48.0718 38.8844C46.3529 37.3433 44.5746 36.0985 42.6185 35.0316C42.9149 34.7945 43.2113 34.4981 43.5669 34.2017C47.894 30.3489 50.0872 25.6069 50.0872 20.035C50.0872 14.4632 47.894 9.72123 43.5669 5.92765C39.2399 2.13407 33.9644 0.177998 27.6813 0.177998C21.3982 0.177998 16.1227 2.07479 11.7957 5.92765C9.12831 8.29864 7.29079 11.0253 6.28312 14.0483H15.7671C16.3006 13.2777 17.0119 12.5664 17.7824 11.9144C20.5091 9.72123 23.7692 8.59501 27.6813 8.59501C31.5934 8.59501 34.9128 9.72123 37.5802 11.9144C40.3068 14.1076 41.6109 16.8342 41.6109 20.035C41.6109 23.2359 40.2476 25.9625 37.5802 28.215C34.9128 30.4081 31.5934 31.5343 27.6813 31.5343H26.5551V39.8921H27.6813C33.431 39.8921 38.2322 41.5518 42.0851 44.8119C45.8787 48.1313 47.7755 52.2212 47.7755 57.0818C47.7755 61.9423 45.8787 66.0915 42.0851 69.4109C38.2322 72.7303 33.431 74.3307 27.6813 74.3307C21.9317 74.3307 17.1897 72.671 13.3368 69.4109C11.3808 67.7512 9.89888 65.7952 8.95049 63.6613H0C1.1855 68.1661 3.61576 72.0783 7.29079 75.4569C12.7441 80.3175 19.5014 82.807 27.6813 82.807C35.8612 82.807 42.6185 80.3767 48.0718 75.4569C52.5767 71.4263 55.2441 66.5065 56.0146 60.8161C55.7775 60.6383 55.5997 60.3419 55.5404 59.927" fill="white"/>
<path d="M86.8376 35.8615C86.5412 37.8769 86.3634 39.9515 86.3634 42.0854C86.3634 51.3322 89.4457 59.9271 94.5433 66.9215C94.8989 66.388 95.2546 65.8546 95.551 65.3211C97.0328 62.6537 97.8627 59.8678 98.159 57.0819C95.9659 52.7548 94.7211 47.9536 94.6026 42.9152C92.6465 40.07 90.0384 37.5805 86.8376 35.9208" fill="white"/>
<path d="M128.152 0.0593327C110.785 0.0593327 95.6695 11.0844 89.4456 26.4366C89.2678 26.8515 89.09 27.3257 88.9121 27.7999C91.5202 28.9854 93.8912 30.5266 96.0844 32.4234C96.3215 31.7121 96.5586 31.0008 96.7957 30.3487C101.656 17.6639 113.985 8.41707 128.152 8.41707C146.409 8.41707 161.583 23.7692 161.583 42.1444C161.583 60.5196 146.29 75.7532 128.152 75.7532C119.913 75.7532 112.266 72.6709 106.398 67.5733C105.746 66.9805 105.094 66.4471 104.501 65.795C104.027 66.9805 103.434 68.2253 102.723 69.4108C101.953 70.7741 101.123 72.0189 100.174 73.2044C100.649 73.6193 101.123 74.0935 101.656 74.5084C108.888 80.5545 118.194 84.2295 128.211 84.2295C150.973 84.2295 170 65.2023 170 42.2037C170 19.2051 150.914 0.0593327 128.152 0.0593327Z" fill="white"/>
<path d="M94.6025 42.0849C94.6025 42.0849 94.6025 42.6183 94.6025 42.8554C96.9735 46.4119 98.2775 50.6204 98.2775 54.7696C98.2775 55.5402 98.2775 56.2515 98.159 57.0221C98.811 58.2669 99.463 59.4524 100.234 60.5786C101.478 62.4161 102.901 64.1351 104.442 65.6762C105.983 62.0012 106.576 58.2669 106.576 54.8289C106.576 46.2341 102.486 37.9356 96.0251 32.3638C95.373 34.557 94.8988 36.8094 94.721 39.1211C94.6617 40.0695 94.6025 41.0772 94.6025 42.0849Z" fill="white"/>
<path d="M104.501 65.7357C102.96 64.1946 101.538 62.4756 100.293 60.6381C99.5223 59.5119 98.811 58.2671 98.2182 57.0816C97.9219 59.9268 97.092 62.6535 95.6101 65.3208C95.3138 65.9136 94.9581 66.447 94.6025 66.9212C95.0174 67.514 95.4323 68.0475 95.9065 68.5809C97.2106 70.1814 98.6924 71.7225 100.234 73.1451C101.182 71.9596 102.012 70.7148 102.782 69.3515C103.494 68.166 104.086 66.9805 104.561 65.7357" fill="white"/>
<path d="M86.8376 35.8615C90.0384 37.5212 92.7057 39.951 94.6025 42.8554C94.6025 42.6183 94.6025 42.3219 94.6025 42.0849C94.6025 41.0772 94.6025 40.1288 94.721 39.1211C94.9581 36.8094 95.373 34.557 96.0251 32.3638C93.8912 30.5263 91.461 28.9264 88.8529 27.7409C88.0824 29.8748 87.4304 32.068 87.0154 34.3204C86.8969 34.7946 86.8376 35.3281 86.7783 35.8616" fill="white"/>
<path d="M76.998 89.2679C74.5084 89.2679 72.4338 87.2525 72.4338 84.7037C72.4338 82.1549 74.4492 80.1395 76.998 80.1395C79.5468 80.1395 81.5621 82.1549 81.5621 84.7037C81.5621 87.2525 79.5468 89.2679 76.998 89.2679ZM100.174 73.1451C98.6332 71.7225 97.2107 70.2407 95.8473 68.581C95.4324 68.0475 94.9582 67.455 94.5433 66.9215C90.3941 72.9082 83.8146 75.931 76.8794 75.931C66.9213 75.931 55.8961 68.166 55.8961 54.9478C55.8961 41.7295 66.6249 33.6088 77.1165 33.6088C80.7323 33.6088 84.0517 34.4389 86.8376 35.9208C86.8968 35.3873 87.0154 34.9129 87.0747 34.3794C87.4896 32.127 88.1416 29.9338 88.9121 27.7999C85.3557 26.1995 81.4436 25.2511 77.2943 25.2511C74.5677 25.2511 71.8411 25.6068 68.8773 26.4366C61.0531 28.9854 55.2441 33.5496 51.5098 40.1291C48.9017 44.7525 47.657 49.6723 47.657 54.5921C47.657 62.2386 50.7392 69.7072 56.074 75.2197L71.9003 91.0461C74.7455 93.8913 79.4282 93.8913 82.2734 91.0461L100.174 73.2044L100.174 73.1451Z" fill="white"/>
<path d="M124.951 88.6156C124.951 88.6156 124.418 88.4378 124.299 88.2007C124.121 87.845 124.299 87.3708 124.655 87.193L127.974 85.4741C128.33 85.2962 128.804 85.474 128.982 85.8297C129.16 86.1853 128.982 86.6595 128.626 86.8374L125.307 88.5563C125.307 88.5563 125.07 88.6156 124.951 88.6156Z" fill="white"/>
<path d="M68.3439 24.7768C68.8181 24.6583 69.2923 24.5398 69.7665 24.4212L83.696 0H74.1528L56.0147 31.712C59.3934 28.689 63.5426 26.318 68.3439 24.7768Z" fill="white"/>
</svg>
