<svg width="54" height="35" viewBox="0 0 54 35" fill="none" xmlns="http://www.w3.org/2000/svg">
<path d="M32.159 30.0343C32.0272 30.0343 31.8954 29.9213 31.6506 29.846C31.4435 29.7707 31.1988 29.7142 30.8975 29.7142C30.1255 29.7142 29.749 30.0154 29.749 30.5426C29.749 30.9192 30.0314 31.1452 30.4833 31.2958C30.9917 31.4841 31.5188 31.5594 32.0084 31.823C32.3661 32.0301 32.6674 32.3878 32.6674 32.9339C32.6674 33.8941 31.9142 34.459 30.841 34.459C30.3138 34.459 29.7301 34.2895 29.3724 34.1012C29.2218 34.0259 29.09 33.9129 29.09 33.7623C29.09 33.5928 29.2218 33.4611 29.3912 33.4611C29.523 33.4611 29.5983 33.5928 29.9373 33.7435C30.1632 33.8564 30.4645 33.9506 30.841 33.9506C31.6506 33.9506 32.0272 33.5364 32.0272 32.9903C32.0272 32.5949 31.7448 32.369 31.3871 32.1995C30.9352 32.0113 30.4268 31.9359 29.8996 31.6723C29.4477 31.4464 29.1465 31.1075 29.1465 30.5426C29.1465 29.6954 29.7866 29.1682 30.9728 29.1682C31.3682 29.1682 31.8389 29.2435 32.159 29.3941C32.3473 29.4694 32.4979 29.5824 32.4979 29.7518C32.4979 29.9213 32.385 30.0343 32.2155 30.0343" fill="#AC1841"/>
<path d="M36.8284 33.4611C37.0732 33.1786 37.205 32.7832 37.205 32.2749V29.4694C37.205 29.3188 37.3368 29.1682 37.5063 29.1682C37.6757 29.1682 37.8075 29.3 37.8075 29.4694V32.3502C37.8075 32.9527 37.6381 33.4611 37.318 33.8C36.9414 34.2142 36.3766 34.4401 35.6423 34.4401C34.9079 34.4401 34.3431 34.2142 33.9665 33.8C33.6464 33.4422 33.477 32.9339 33.477 32.3502V29.4694C33.477 29.3188 33.6088 29.1682 33.7782 29.1682C33.9477 29.1682 34.0795 29.3 34.0795 29.4694V32.2749C34.0795 32.7832 34.2113 33.1786 34.4561 33.4611C34.7385 33.7623 35.1339 33.9129 35.6423 33.9129C36.1506 33.9129 36.546 33.7623 36.8284 33.4611Z" fill="#AC1841"/>
<path d="M38.9937 29.4694C38.9937 29.3188 39.1255 29.1682 39.295 29.1682C39.4644 29.1682 39.5962 29.3 39.5962 29.4694V34.1577C39.5962 34.3083 39.4644 34.459 39.295 34.459C39.1255 34.459 38.9937 34.3272 38.9937 34.1577V29.4694Z" fill="#AC1841"/>
<path d="M42.8347 29.7894V34.1764C42.8347 34.327 42.7029 34.4776 42.5335 34.4776C42.364 34.4776 42.2322 34.3459 42.2322 34.1764V29.7894H40.6694C40.5188 29.7894 40.4058 29.6764 40.4058 29.5258C40.4058 29.3751 40.5188 29.2622 40.6694 29.2622H44.3975C44.5481 29.2622 44.6611 29.3751 44.6611 29.5258C44.6611 29.6764 44.5481 29.7894 44.3975 29.7894H42.8347Z" fill="#AC1841"/>
<path d="M45.9038 33.8563H48.7845C48.9351 33.8563 49.0481 33.9692 49.0481 34.1199C49.0481 34.2705 48.9351 34.3835 48.7845 34.3835H45.6025C45.433 34.3835 45.3012 34.2517 45.3012 34.0822V29.5257C45.3012 29.3751 45.433 29.2245 45.6025 29.2245H48.7845C48.9351 29.2245 49.0481 29.3374 49.0481 29.4881C49.0481 29.6387 48.9351 29.7517 48.7845 29.7517H45.9038V31.5027H48.3891C48.5397 31.5027 48.6527 31.6345 48.6527 31.7663C48.6527 31.8981 48.5397 32.0299 48.3891 32.0299H45.9038V33.8563Z" fill="#AC1841"/>
<path d="M52.7574 30.0343C52.6256 30.0343 52.4938 29.9213 52.249 29.846C52.0419 29.7707 51.7971 29.7142 51.4958 29.7142C50.7239 29.7142 50.3473 30.0154 50.3473 30.5426C50.3473 30.9192 50.6297 31.1452 51.0816 31.2958C51.59 31.4841 52.1172 31.5594 52.6067 31.823C52.9645 32.0301 53.2657 32.3878 53.2657 32.9339C53.2657 33.8941 52.5126 34.459 51.4394 34.459C50.9122 34.459 50.3285 34.2895 49.9707 34.1012C49.8201 34.0259 49.6883 33.9129 49.6883 33.7623C49.6883 33.5928 49.8201 33.4611 49.9896 33.4611C50.1214 33.4611 50.1967 33.5928 50.5356 33.7435C50.7615 33.8564 51.0628 33.9506 51.4394 33.9506C52.249 33.9506 52.6256 33.5364 52.6256 32.9903C52.6256 32.5949 52.3431 32.369 51.9854 32.1995C51.5335 32.0113 51.0251 31.9359 50.4979 31.6723C50.0461 31.4464 49.7448 31.1075 49.7448 30.5426C49.7448 29.6954 50.385 29.1682 51.5712 29.1682C51.9666 29.1682 52.4373 29.2435 52.7574 29.3941C52.9456 29.4694 53.0963 29.5824 53.0963 29.7518C53.0963 29.9213 52.9833 30.0343 52.8138 30.0343" fill="#AC1841"/>
<path d="M17.6423 19.9234C17.5858 19.1702 17.3222 18.4924 17.4351 17.7393C17.454 17.551 17.5858 17.4569 17.7364 17.438C17.4163 15.7999 16.6067 14.3878 15.2699 13.2016C14.7238 12.7121 14.159 12.3167 13.5377 11.9778C13.6318 11.9025 13.7259 11.8083 13.8389 11.7142C15.2134 10.4903 15.91 8.98404 15.91 7.21417C15.91 5.4443 15.2134 3.93802 13.8389 2.733C12.4644 1.52798 10.7887 0.906638 8.79289 0.906638C6.79707 0.906638 5.12134 1.50915 3.74686 2.733C2.89958 3.48614 2.3159 4.35224 1.99582 5.3125H5.00837C5.17782 5.06773 5.40377 4.84178 5.64854 4.63467C6.51464 3.93802 7.55021 3.58028 8.79289 3.58028C10.0356 3.58028 11.09 3.93802 11.9372 4.63467C12.8033 5.33132 13.2176 6.19743 13.2176 7.21417C13.2176 8.23091 12.7845 9.09701 11.9372 9.8125C11.09 10.5091 10.0356 10.8669 8.79289 10.8669H8.43515V13.5217H8.79289C10.6192 13.5217 12.1444 14.0489 13.3682 15.0845C14.5732 16.1389 15.1757 17.438 15.1757 18.982C15.1757 20.5259 14.5732 21.8439 13.3682 22.8983C12.1444 23.9527 10.6192 24.461 8.79289 24.461C6.96653 24.461 5.46025 23.9338 4.2364 22.8983C3.61506 22.3711 3.14435 21.7497 2.8431 21.0719H0C0.376569 22.5029 1.14854 23.7456 2.3159 24.8188C4.04812 26.3627 6.19456 27.1535 8.79289 27.1535C11.3912 27.1535 13.5377 26.3815 15.2699 24.8188C16.7008 23.5384 17.5481 21.9757 17.7929 20.1681C17.7176 20.1117 17.6611 20.0175 17.6423 19.8857" fill="#AC1841"/>
<path d="M27.5837 12.2414C27.4896 12.8816 27.4331 13.5406 27.4331 14.2184C27.4331 17.1556 28.4121 19.8858 30.0314 22.1075C30.1444 21.9381 30.2573 21.7686 30.3515 21.5991C30.8222 20.7519 31.0858 19.8669 31.1799 18.982C30.4833 17.6075 30.0879 16.0824 30.0502 14.482C29.4289 13.5782 28.6004 12.7874 27.5837 12.2602" fill="#AC1841"/>
<path d="M40.7071 0.868944C35.1904 0.868944 30.3891 4.37104 28.4121 9.2476C28.3556 9.3794 28.2992 9.53003 28.2427 9.68066C29.0711 10.0572 29.8243 10.5468 30.5209 11.1493C30.5962 10.9233 30.6715 10.6974 30.7469 10.4903C32.2908 6.46099 36.2071 3.52376 40.7071 3.52376C46.5063 3.52376 51.3264 8.40033 51.3264 14.2371C51.3264 20.074 46.4686 24.9129 40.7071 24.9129C38.09 24.9129 35.6611 23.9338 33.7971 22.3146C33.59 22.1263 33.3828 21.9568 33.1946 21.7497C33.0439 22.1263 32.8556 22.5217 32.6297 22.8982C32.3849 23.3313 32.1213 23.7267 31.8201 24.1033C31.9707 24.2351 32.1213 24.3857 32.2908 24.5175C34.5879 26.438 37.5439 27.6053 40.7259 27.6053C47.9561 27.6053 54 21.5614 54 14.256C54 6.95053 47.9372 0.868944 40.7071 0.868944Z" fill="#AC1841"/>
<path d="M30.0502 14.2182C30.0502 14.2182 30.0502 14.3877 30.0502 14.463C30.8033 15.5927 31.2176 16.9295 31.2176 18.2475C31.2176 18.4923 31.2176 18.7182 31.1799 18.963C31.387 19.3584 31.5941 19.735 31.8389 20.0927C32.2343 20.6764 32.6862 21.2224 33.1757 21.7119C33.6653 20.5446 33.8535 19.3584 33.8535 18.2663C33.8535 15.5362 32.5544 12.9002 30.5021 11.1304C30.295 11.827 30.1443 12.5425 30.0878 13.2768C30.069 13.5781 30.0502 13.8981 30.0502 14.2182Z" fill="#AC1841"/>
<path d="M33.1945 21.7309C32.705 21.2413 32.2531 20.6953 31.8577 20.1116C31.613 19.7539 31.387 19.3585 31.1987 18.9819C31.1046 19.8857 30.841 20.7518 30.3703 21.5991C30.2761 21.7873 30.1632 21.9568 30.0502 22.1074C30.182 22.2957 30.3138 22.4652 30.4644 22.6346C30.8786 23.143 31.3494 23.6325 31.8389 24.0844C32.1402 23.7078 32.4038 23.3125 32.6485 22.8794C32.8745 22.5028 33.0627 22.1263 33.2134 21.7309" fill="#AC1841"/>
<path d="M27.5837 12.2414C28.6004 12.7686 29.4477 13.5404 30.0502 14.463C30.0502 14.3877 30.0502 14.2935 30.0502 14.2182C30.0502 13.8981 30.0502 13.5969 30.0878 13.2768C30.1632 12.5425 30.295 11.827 30.5021 11.1304C29.8243 10.5467 29.0523 10.0385 28.2239 9.66191C27.9791 10.3397 27.772 11.0364 27.6402 11.7519C27.6025 11.9025 27.5837 12.072 27.5649 12.2414" fill="#AC1841"/>
<path d="M24.4582 29.2058C23.6674 29.2058 23.0084 28.5656 23.0084 27.756C23.0084 26.9464 23.6486 26.3062 24.4582 26.3062C25.2678 26.3062 25.908 26.9464 25.908 27.756C25.908 28.5656 25.2678 29.2058 24.4582 29.2058ZM31.8201 24.0844C31.3306 23.6325 30.8787 23.1618 30.4456 22.6346C30.3138 22.4652 30.1632 22.277 30.0314 22.1075C28.7134 24.0092 26.6234 24.9694 24.4205 24.9694C21.2573 24.9694 17.7552 22.5028 17.7552 18.3041C17.7552 14.1053 21.1632 11.5258 24.4958 11.5258C25.6444 11.5258 26.6988 11.7895 27.5837 12.2602C27.6025 12.0908 27.6402 11.9401 27.659 11.7706C27.7908 11.0551 27.9979 10.3585 28.2427 9.68066C27.113 9.17229 25.8703 8.87104 24.5523 8.87104C23.6862 8.87104 22.8201 8.98401 21.8787 9.24761C19.3933 10.0572 17.5481 11.507 16.3619 13.597C15.5335 15.0656 15.1381 16.6284 15.1381 18.1911C15.1381 20.62 16.1172 22.9924 17.8117 24.7434L22.8389 29.7706C23.7427 30.6744 25.2301 30.6744 26.1339 29.7706L31.8201 24.1033L31.8201 24.0844Z" fill="#AC1841"/>
<path d="M39.6904 28.9986C39.6904 28.9986 39.5209 28.9421 39.4832 28.8668C39.4268 28.7538 39.4832 28.6032 39.5962 28.5467L40.6506 28.0007C40.7636 27.9442 40.9142 28.0007 40.9707 28.1136C41.0272 28.2266 40.9707 28.3772 40.8577 28.4337L39.8033 28.9798C39.8033 28.9798 39.728 28.9986 39.6904 28.9986Z" fill="#AC1841"/>
<path d="M21.7092 8.72039C21.8599 8.68273 22.0105 8.64508 22.1611 8.60742L26.5858 0.850098H23.5544L17.7929 10.9233C18.8661 9.96307 20.1841 9.20993 21.7092 8.72039Z" fill="#AC1841"/>
</svg>
