<svg width="160" height="36" viewBox="0 0 160 36" fill="none" xmlns="http://www.w3.org/2000/svg">
<path d="M87.9682 30.5711H89.2114L88.2635 35.6208H87.0204L87.9682 30.5711ZM88.0777 29.0784C88.1642 28.6898 88.5459 28.4033 88.9939 28.4033C89.4419 28.4033 89.7242 28.72 89.6479 29.1389C89.5831 29.5275 89.1898 29.814 88.7548 29.814C88.2967 29.814 88.0028 29.4973 88.0792 29.0784H88.0777Z" fill="#145A38"/>
<path d="M95.5209 32.8311L94.998 35.6222H93.7548L94.2676 32.9031C94.4304 32.0236 94.0717 31.5025 93.2535 31.5025C92.3705 31.5025 91.6301 32.1056 91.4658 32.9635L90.9746 35.6208H89.7314L90.6793 30.5711H91.7914L91.6819 31.2362C92.2163 30.7252 92.9035 30.469 93.6223 30.469C95.0282 30.469 95.7802 31.4406 95.5195 32.8297L95.5209 32.8311Z" fill="#145A38"/>
<path d="M102.509 30.5711L99.2821 35.6208H97.9626L96.633 30.5711H97.8977L98.3126 32.2683L98.7923 34.4347L100.067 32.2683L101.125 30.5711H102.509Z" fill="#145A38"/>
<path d="M103.643 33.5264C103.599 34.272 104.122 34.7326 105.06 34.7326C105.681 34.7326 106.356 34.5282 106.771 34.2115L107.404 34.937C106.761 35.4682 105.91 35.7647 104.984 35.7647C103.196 35.7647 102.172 34.6808 102.466 33.096C102.771 31.4607 104.046 30.469 105.736 30.469C107.698 30.469 108.461 31.7774 107.938 33.5249H103.644L103.643 33.5264ZM103.817 32.6368H106.956C107.044 31.8796 106.586 31.4607 105.669 31.4607C104.808 31.4607 104.111 31.8998 103.817 32.6368Z" fill="#145A38"/>
<path d="M108.45 34.9672L109.092 34.1597C109.572 34.5685 110.106 34.7427 110.88 34.7427C111.588 34.7427 112.111 34.4462 112.111 34.0374C112.111 33.7308 111.741 33.5566 111.032 33.5264C109.779 33.4544 109.114 32.9232 109.114 32.0754C109.114 31.0534 110.149 30.4502 111.577 30.4502C112.384 30.4502 113.081 30.6647 113.648 31.0937L113.028 31.8494C112.636 31.5529 112.133 31.4003 111.545 31.4003C110.75 31.4003 110.325 31.6148 110.325 32.0135C110.325 32.3402 110.652 32.5346 111.318 32.5965C112.69 32.7188 113.334 33.1492 113.334 33.9971C113.334 35.0392 112.289 35.7446 110.816 35.7446C109.835 35.7446 109.007 35.4682 108.451 34.9672H108.45Z" fill="#145A38"/>
<path d="M116.233 33.8632C116.135 34.3843 116.266 34.6606 116.777 34.6606C117.028 34.6606 117.29 34.5987 117.508 34.4965L117.67 35.448C117.234 35.6107 116.885 35.6927 116.472 35.6927C115.305 35.6927 114.772 35.0594 114.99 33.9452L115.436 31.5428H114.412L114.598 30.5711H115.622L115.862 29.2526L117.127 29.1303L116.855 30.5711H118.37L118.185 31.5428H116.669L116.233 33.8632Z" fill="#145A38"/>
<path d="M119.471 30.5711H120.714L119.766 35.6208H118.523L119.471 30.5711ZM119.58 29.0784C119.667 28.6898 120.049 28.4033 120.497 28.4033C120.945 28.4033 121.227 28.72 121.151 29.1389C121.086 29.5275 120.693 29.814 120.257 29.814C119.799 29.814 119.506 29.4973 119.582 29.0784H119.58Z" fill="#145A38"/>
<path d="M130.393 32.6987L129.837 35.6222H128.594L129.128 32.7606C129.269 31.9833 128.942 31.5039 128.212 31.5039C127.427 31.5039 126.828 32.025 126.675 32.8124L126.152 35.6236H124.92L125.455 32.762C125.596 31.9948 125.237 31.5054 124.496 31.5054C123.754 31.5054 123.154 32.0264 123.002 32.8138L122.479 35.6251H121.236L122.183 30.5755H123.296L123.208 31.1383C123.633 30.7194 124.222 30.4733 124.897 30.4733C125.671 30.4733 126.217 30.7899 126.434 31.3211C126.947 30.7597 127.644 30.4733 128.473 30.4733C129.955 30.4733 130.652 31.3211 130.392 32.7015L130.393 32.6987Z" fill="#145A38"/>
<path d="M132.552 33.5264C132.509 34.272 133.032 34.7326 133.97 34.7326C134.591 34.7326 135.266 34.5282 135.681 34.2115L136.314 34.937C135.671 35.4682 134.82 35.7647 133.893 35.7647C132.106 35.7647 131.082 34.6808 131.375 33.096C131.681 31.4607 132.956 30.469 134.645 30.469C136.607 30.469 137.371 31.7774 136.848 33.5249H132.554L132.552 33.5264ZM132.727 32.6368H135.866C135.953 31.8796 135.495 31.4607 134.579 31.4607C133.718 31.4607 133.021 31.8998 132.727 32.6368Z" fill="#145A38"/>
<path d="M143.376 32.8311L142.854 35.6222H141.61L142.123 32.9031C142.286 32.0236 141.927 31.5025 141.109 31.5025C140.226 31.5025 139.486 32.1056 139.321 32.9635L138.83 35.6208H137.587L138.535 30.5711H139.647L139.537 31.2362C140.072 30.7252 140.759 30.469 141.478 30.469C142.884 30.469 143.636 31.4406 143.375 32.8297L143.376 32.8311Z" fill="#145A38"/>
<path d="M146.308 33.8632C146.21 34.3843 146.341 34.6606 146.852 34.6606C147.103 34.6606 147.365 34.5987 147.583 34.4965L147.746 35.448C147.309 35.6107 146.96 35.6927 146.547 35.6927C145.38 35.6927 144.847 35.0594 145.065 33.9452L145.511 31.5428H144.487L144.673 30.5711H145.697L145.938 29.2526L147.202 29.1303L146.93 30.5711H148.446L148.26 31.5428H146.744L146.308 33.8632Z" fill="#145A38"/>
<path d="M148.652 33.5667C148.652 31.8091 150.124 30.4589 152.009 30.4589C153.48 30.4589 154.451 31.3283 154.451 32.6253C154.451 34.3943 153.012 35.733 151.116 35.733C149.634 35.733 148.653 34.8636 148.653 33.5667H148.652ZM153.23 32.7692C153.23 32.0034 152.685 31.5025 151.867 31.5025C150.788 31.5025 149.883 32.3719 149.883 33.4141C149.883 34.1813 150.428 34.6923 151.256 34.6923C152.335 34.6923 153.23 33.8128 153.23 32.7706V32.7692Z" fill="#145A38"/>
<path d="M154.801 34.9672L155.444 34.1597C155.923 34.5685 156.458 34.7427 157.231 34.7427C157.94 34.7427 158.463 34.4462 158.463 34.0374C158.463 33.7308 158.093 33.5566 157.384 33.5264C156.131 33.4544 155.465 32.9232 155.465 32.0754C155.465 31.0534 156.501 30.4502 157.929 30.4502C158.735 30.4502 159.432 30.6647 160 31.0937L159.379 31.8494C158.987 31.5529 158.485 31.4003 157.897 31.4003C157.102 31.4003 156.677 31.6148 156.677 32.0135C156.677 32.3402 157.004 32.5346 157.669 32.5965C159.042 32.7188 159.686 33.1492 159.686 33.9971C159.686 35.0392 158.64 35.7446 157.168 35.7446C156.187 35.7446 155.359 35.4682 154.803 34.9672H154.801Z" fill="#145A38"/>
<path d="M0 15.3892L3.7151 19.103L14.8647 7.96163L26.0201 19.1088L29.7352 15.3964L14.8705 0.542675L14.8618 0.549872L14.8561 0.544114L0 15.3892Z" fill="#145A38"/>
<path d="M9.61979 24.8723C9.61979 24.8723 13.1361 21.3788 14.8647 19.6529C18.5827 23.3681 16.3499 21.1269 20.0679 24.8436L23.783 21.1312L14.8705 12.2339L14.8633 12.2411L14.8575 12.2354C11.8886 15.2021 5.92486 21.1614 5.92486 21.1614L9.62123 24.8709L9.61979 24.8723Z" fill="white"/>
<path d="M137.832 0.513886V25.0292H159.081V18.9015H143.891V0.513886H137.832Z" fill="#145A38"/>
<path d="M86.7582 0.521083H80.6864V25.0235H86.7582V0.521083Z" fill="#145A38"/>
<path d="M32.622 0.521083V6.63733H40.2914V25.0235H46.4856V6.63733H54.1376V0.521083H32.622Z" fill="#145A38"/>
<path d="M101.247 9.59109C99.0401 9.37085 96.6474 9.16501 96.6474 7.34698C96.6474 6.00541 98.739 5.40515 100.505 5.40515C102.535 5.40515 104.235 5.82116 105.698 6.67763L105.776 6.72226L109.746 2.82565L109.639 2.74504C107.09 0.8464 104.272 0 100.504 0C95.3322 0 90.0959 2.52193 90.0959 7.34554C90.0959 12.1692 93.314 14.5097 100.224 15.2165C103.205 15.5202 104.698 16.2126 104.698 17.5297C104.698 18.8468 102.902 19.7738 100.466 19.7738C97.6759 19.7738 95.397 18.9835 93.4955 17.3584L93.4148 17.2879L89.331 21.3011L89.416 21.3817C93.3529 25.1358 98.4307 25.5417 100.43 25.5417C107.966 25.5417 111.338 21.5702 111.338 17.6348C111.338 11.8654 105.849 10.0747 101.246 9.58965" fill="#145A38"/>
<path d="M129.189 0.246147V14.8221C129.189 17.2476 127.221 19.2139 124.794 19.2139H124.375C121.946 19.2139 119.978 17.2476 119.978 14.8221V0.246147L113.915 0.26486V15.1488C113.915 20.7541 118.463 25.2984 124.072 25.2984H125.099C130.711 25.2984 135.258 20.7541 135.258 15.1488V0.26486L129.189 0.246147Z" fill="#145A38"/>
<path d="M78.1122 9.71057C78.1122 4.64224 73.9866 0.521083 68.9159 0.521083H56.7133V25.0235H62.8528V18.9H67.5114L71.9007 25.0235H78.0733V24.4232L73.311 17.7816C76.1704 16.2212 78.1136 13.1883 78.1136 9.71057M62.847 6.64884H68.9174C70.61 6.64884 71.9814 8.01921 71.9814 9.71057C71.9814 11.4019 70.61 12.7723 68.9174 12.7723H62.847V6.64884Z" fill="#145A38"/>
</svg>
