<svg width="287" height="64" viewBox="0 0 287 64" fill="none" xmlns="http://www.w3.org/2000/svg">
<path d="M157.417 54.7063H159.641L157.945 63.7424H155.721L157.417 54.7063ZM157.613 52.0351C157.767 51.3396 158.451 50.827 159.252 50.827C160.054 50.827 160.559 51.3937 160.423 52.1433C160.307 52.8388 159.603 53.3514 158.824 53.3514C158.005 53.3514 157.479 52.7847 157.615 52.0351H157.613Z" fill="#145A38"/>
<path d="M170.932 58.7504L169.996 63.745H167.772L168.689 58.8792C168.981 57.3053 168.339 56.3729 166.875 56.3729C165.295 56.3729 163.97 57.4521 163.676 58.9874L162.797 63.7424H160.572L162.268 54.7063H164.258L164.062 55.8963C165.019 54.9819 166.248 54.5234 167.535 54.5234C170.051 54.5234 171.396 56.2621 170.93 58.7478L170.932 58.7504Z" fill="#145A38"/>
<path d="M183.437 54.7063L177.663 63.7424H175.301L172.922 54.7063H175.185L175.928 57.7432L176.786 61.6199L179.068 57.7432L180.96 54.7063H183.437Z" fill="#145A38"/>
<path d="M185.466 59.9945C185.388 61.3288 186.324 62.1531 188.002 62.1531C189.113 62.1531 190.322 61.7873 191.065 61.2206L192.196 62.5189C191.046 63.4694 189.523 64 187.865 64C184.666 64 182.834 62.0604 183.36 59.2243C183.906 56.2982 186.187 54.5234 189.211 54.5234C192.722 54.5234 194.088 56.8648 193.153 59.992H185.468L185.466 59.9945ZM185.778 58.4026H191.394C191.552 57.0477 190.732 56.2982 189.093 56.2982C187.551 56.2982 186.303 57.0838 185.778 58.4026Z" fill="#145A38"/>
<path d="M194.068 62.573L195.217 61.1279C196.076 61.8595 197.032 62.1711 198.416 62.1711C199.685 62.1711 200.62 61.6405 200.62 60.909C200.62 60.3603 199.958 60.0486 198.69 59.9945C196.447 59.8657 195.256 58.9152 195.256 57.3981C195.256 55.5692 197.109 54.4899 199.664 54.4899C201.108 54.4899 202.355 54.8737 203.371 55.6413L202.26 56.9936C201.559 56.463 200.659 56.19 199.607 56.19C198.184 56.19 197.424 56.5738 197.424 57.2873C197.424 57.872 198.009 58.2198 199.2 58.3305C201.657 58.5495 202.809 59.3196 202.809 60.8368C202.809 62.7018 200.937 63.9639 198.303 63.9639C196.547 63.9639 195.065 63.4694 194.07 62.573H194.068Z" fill="#145A38"/>
<path d="M207.995 60.5973C207.82 61.5297 208.055 62.0243 208.97 62.0243C209.418 62.0243 209.887 61.9135 210.277 61.7307L210.568 63.4333C209.787 63.7244 209.163 63.8712 208.423 63.8712C206.335 63.8712 205.381 62.7378 205.771 60.7441L206.57 56.445H204.737L205.07 54.7063H206.902L207.333 52.3468L209.596 52.1278L209.109 54.7063H211.821L211.488 56.445H208.776L207.995 60.5973Z" fill="#145A38"/>
<path d="M213.79 54.7063H216.015L214.319 63.7424H212.094L213.79 54.7063ZM213.986 52.0351C214.141 51.3396 214.824 50.827 215.626 50.827C216.427 50.827 216.932 51.3937 216.796 52.1433C216.68 52.8388 215.976 53.3514 215.198 53.3514C214.378 53.3514 213.852 52.7847 213.989 52.0351H213.986Z" fill="#145A38"/>
<path d="M233.335 58.5134L232.34 63.745H230.115L231.072 58.6242C231.324 57.2332 230.739 56.3754 229.432 56.3754C228.027 56.3754 226.955 57.3079 226.682 58.7169L225.746 63.7476H223.542L224.498 58.6267C224.751 57.2538 224.109 56.378 222.781 56.378C221.454 56.378 220.382 57.3105 220.108 58.7195L219.173 63.7501H216.948L218.644 54.714H220.634L220.477 55.7212C221.237 54.9716 222.292 54.5311 223.501 54.5311C224.885 54.5311 225.862 55.0978 226.251 56.0483C227.169 55.0437 228.416 54.5311 229.899 54.5311C232.551 54.5311 233.799 56.0483 233.332 58.5186L233.335 58.5134Z" fill="#145A38"/>
<path d="M237.199 59.9945C237.122 61.3288 238.057 62.1531 239.735 62.1531C240.846 62.1531 242.055 61.7873 242.798 61.2206L243.929 62.5189C242.78 63.4694 241.256 64 239.599 64C236.4 64 234.567 62.0604 235.093 59.2243C235.639 56.2982 237.921 54.5234 240.944 54.5234C244.455 54.5234 245.822 56.8648 244.886 59.992H237.201L237.199 59.9945ZM237.511 58.4026H243.128C243.285 57.0477 242.465 56.2982 240.826 56.2982C239.284 56.2982 238.037 57.0838 237.511 58.4026Z" fill="#145A38"/>
<path d="M256.568 58.7504L255.633 63.745H253.408L254.326 58.8792C254.617 57.3053 253.975 56.3729 252.511 56.3729C250.931 56.3729 249.606 57.4521 249.312 58.9874L248.433 63.7424H246.208L247.904 54.7063H249.894L249.699 55.8963C250.655 54.9819 251.884 54.5234 253.171 54.5234C255.687 54.5234 257.032 56.2621 256.566 58.7478L256.568 58.7504Z" fill="#145A38"/>
<path d="M261.814 60.5973C261.639 61.5297 261.873 62.0243 262.788 62.0243C263.237 62.0243 263.706 61.9135 264.095 61.7307L264.387 63.4333C263.606 63.7244 262.982 63.8712 262.242 63.8712C260.154 63.8712 259.2 62.7378 259.589 60.7441L260.389 56.445H258.556L258.888 54.7063H260.721L261.152 52.3468L263.415 52.1278L262.928 54.7063H265.639L265.307 56.445H262.595L261.814 60.5973Z" fill="#145A38"/>
<path d="M266.008 60.0667C266.008 56.9215 268.643 54.5054 272.017 54.5054C274.649 54.5054 276.386 56.0612 276.386 58.382C276.386 61.5478 273.811 63.9433 270.419 63.9433C267.766 63.9433 266.011 62.3875 266.011 60.0667H266.008ZM274.2 58.6396C274.2 57.2693 273.226 56.3729 271.762 56.3729C269.831 56.3729 268.212 57.9287 268.212 59.7936C268.212 61.1665 269.186 62.081 270.669 62.081C272.599 62.081 274.2 60.5071 274.2 58.6422V58.6396Z" fill="#145A38"/>
<path d="M277.013 62.573L278.162 61.1279C279.021 61.8595 279.977 62.1711 281.361 62.1711C282.63 62.1711 283.565 61.6405 283.565 60.909C283.565 60.3603 282.903 60.0486 281.635 59.9945C279.392 59.8657 278.201 58.9152 278.201 57.3981C278.201 55.5692 280.054 54.4899 282.609 54.4899C284.052 54.4899 285.3 54.8737 286.316 55.6413L285.205 56.9936C284.504 56.463 283.604 56.19 282.552 56.19C281.129 56.19 280.369 56.5738 280.369 57.2873C280.369 57.872 280.954 58.2198 282.145 58.3305C284.602 58.5495 285.754 59.3196 285.754 60.8368C285.754 62.7018 283.882 63.9639 281.248 63.9639C279.492 63.9639 278.01 63.4694 277.015 62.573H277.013Z" fill="#145A38"/>
<path d="M0 27.5386L6.64808 34.1843L26.6 14.2471L46.5623 34.1946L53.2104 27.5515L26.6103 0.971102L26.5949 0.983981L26.5846 0.973678L0 27.5386Z" fill="#145A38"/>
<path d="M17.2144 44.5084C17.2144 44.5084 23.5067 38.2568 26.6 35.1683C33.2533 41.8166 29.2577 37.806 35.9109 44.4569L42.559 37.8137L26.6103 21.8923L26.5975 21.9052L26.5871 21.8949C21.2744 27.2037 10.6024 37.8678 10.6024 37.8678L17.2169 44.5058L17.2144 44.5084Z" fill="white"/>
<path d="M246.646 0.919585V44.7892H284.671V33.8237H257.489V0.919585H246.646Z" fill="#145A38"/>
<path d="M155.252 0.932464H144.386V44.7789H155.252V0.932464Z" fill="#145A38"/>
<path d="M58.3762 0.932464V11.8773H72.1003V44.7789H83.1847V11.8773H96.8779V0.932464H58.3762Z" fill="#145A38"/>
<path d="M181.179 17.163C177.23 16.7689 172.948 16.4005 172.948 13.1472C172.948 10.7465 176.691 9.67238 179.851 9.67238C183.483 9.67238 186.525 10.4168 189.144 11.9494L189.283 12.0293L196.388 5.05643L196.197 4.91218C191.634 1.51461 186.592 0 179.849 0C170.594 0 161.224 4.51292 161.224 13.1447C161.224 21.7764 166.983 25.9647 179.349 27.2295C184.682 27.773 187.355 29.012 187.355 31.3689C187.355 33.7258 184.141 35.3847 179.782 35.3847C174.788 35.3847 170.71 33.9705 167.308 31.0624L167.163 30.9362L159.855 38.1177L160.008 38.2619C167.053 44.9798 176.139 45.7062 179.717 45.7062C193.201 45.7062 199.236 38.5994 199.236 31.557C199.236 21.2329 189.415 18.0285 181.176 17.1604" fill="#145A38"/>
<path d="M231.18 0.440473V26.5237C231.18 30.864 227.659 34.3827 223.315 34.3827H222.565C218.219 34.3827 214.698 30.864 214.698 26.5237V0.440473L203.848 0.47396V27.1084C203.848 37.1389 211.986 45.2709 222.024 45.2709H223.862C233.905 45.2709 242.04 37.1389 242.04 27.1084V0.47396L231.18 0.440473Z" fill="#145A38"/>
<path d="M139.78 17.3768C139.78 8.30717 132.397 0.932464 123.323 0.932464H101.487V44.7789H112.473V33.8211H120.81L128.664 44.7789H139.71V43.7047L131.188 31.8197C136.305 29.0275 139.782 23.6001 139.782 17.3768M112.463 11.8979H123.326C126.355 11.8979 128.809 14.3502 128.809 17.3768C128.809 20.4034 126.355 22.8557 123.326 22.8557H112.463V11.8979Z" fill="#145A38"/>
</svg>
