<svg width="19" height="152" viewBox="0 0 19 152" fill="none" xmlns="http://www.w3.org/2000/svg">
<path d="M17.4137 50.2675C16.5433 50.2675 15.8448 49.5634 15.8448 48.6985C15.8448 47.8337 16.5489 47.1296 17.4137 47.1296C18.2786 47.1296 18.9827 47.8337 18.9827 48.6985C18.9827 49.5634 18.2786 50.2675 17.4137 50.2675Z" fill="#EB5C38"/>
<path d="M17.4137 65.9792C16.5433 65.9792 15.8448 65.2751 15.8448 64.4102C15.8448 63.5454 16.5489 62.8413 17.4137 62.8413C18.2786 62.8413 18.9827 63.5454 18.9827 64.4102C18.9827 65.2751 18.2786 65.9792 17.4137 65.9792Z" fill="#EB5C38"/>
<path d="M17.4137 105.253C16.5433 105.253 15.8448 104.549 15.8448 103.684C15.8448 102.819 16.5489 102.115 17.4137 102.115C18.2786 102.115 18.9827 102.819 18.9827 103.684C18.9827 104.549 18.2786 105.253 17.4137 105.253Z" fill="#EB5C38"/>
<path d="M17.4137 3.14345C16.5433 3.14345 15.8448 2.43936 15.8448 1.5745C15.8448 0.709633 16.5489 0.005544 17.4137 0.005544C18.2786 0.005544 18.9827 0.709633 18.9827 1.5745C18.9827 2.43936 18.2786 3.14345 17.4137 3.14345Z" fill="#EB5C38"/>
<path d="M17.4137 81.6854C16.5433 81.6854 15.8448 80.9813 15.8448 80.1164C15.8448 79.2515 16.5489 78.5475 17.4137 78.5475C18.2786 78.5475 18.9827 79.2515 18.9827 80.1164C18.9827 80.9813 18.2786 81.6854 17.4137 81.6854Z" fill="#EB5C38"/>
<path d="M17.4137 120.959C16.5433 120.959 15.8448 120.255 15.8448 119.39C15.8448 118.525 16.5489 117.821 17.4137 117.821C18.2786 117.821 18.9827 118.525 18.9827 119.39C18.9827 120.255 18.2786 120.959 17.4137 120.959Z" fill="#EB5C38"/>
<path d="M17.4137 144.144C16.5433 144.144 15.8448 143.44 15.8448 142.575C15.8448 141.71 16.5489 141.006 17.4137 141.006C18.2786 141.006 18.9827 141.71 18.9827 142.575C18.9827 143.44 18.2786 144.144 17.4137 144.144Z" fill="#EB5C38"/>
<path d="M17.4137 18.8496C16.5433 18.8496 15.8448 18.1455 15.8448 17.2807C15.8448 16.4158 16.5489 15.7117 17.4137 15.7117C18.2786 15.7117 18.9827 16.4158 18.9827 17.2807C18.9827 18.1455 18.2786 18.8496 17.4137 18.8496Z" fill="#EB5C38"/>
<path d="M17.4137 34.5613C16.5433 34.5613 15.8448 33.8572 15.8448 32.9924C15.8448 32.1275 16.5489 31.4234 17.4137 31.4234C18.2786 31.4234 18.9827 32.1275 18.9827 32.9924C18.9827 33.8572 18.2786 34.5613 17.4137 34.5613Z" fill="#EB5C38"/>
<path d="M17.4137 58.1233C16.5433 58.1233 15.8448 57.4193 15.8448 56.5544C15.8448 55.6895 16.5489 54.9854 17.4137 54.9854C18.2786 54.9854 18.9827 55.6895 18.9827 56.5544C18.9827 57.4193 18.2786 58.1233 17.4137 58.1233Z" fill="#EB5C38"/>
<path d="M17.4137 97.3971C16.5433 97.3971 15.8448 96.693 15.8448 95.8281C15.8448 94.9633 16.5489 94.2592 17.4137 94.2592C18.2786 94.2592 18.9827 94.9633 18.9827 95.8281C18.9827 96.693 18.2786 97.3971 17.4137 97.3971Z" fill="#EB5C38"/>
<path d="M17.4137 73.8295C16.5433 73.8295 15.8448 73.1254 15.8448 72.2606C15.8448 71.3957 16.5489 70.6916 17.4137 70.6916C18.2786 70.6916 18.9827 71.3957 18.9827 72.2606C18.9827 73.1254 18.2786 73.8295 17.4137 73.8295Z" fill="#EB5C38"/>
<path d="M17.4137 113.103C16.5433 113.103 15.8448 112.399 15.8448 111.534C15.8448 110.669 16.5489 109.965 17.4137 109.965C18.2786 109.965 18.9827 110.669 18.9827 111.534C18.9827 112.399 18.2786 113.103 17.4137 113.103Z" fill="#EB5C38"/>
<path d="M17.4137 136.288C16.5433 136.288 15.8448 135.584 15.8448 134.719C15.8448 133.854 16.5489 133.15 17.4137 133.15C18.2786 133.15 18.9827 133.854 18.9827 134.719C18.9827 135.584 18.2786 136.288 17.4137 136.288Z" fill="#EB5C38"/>
<path d="M17.4137 10.9938C16.5433 10.9938 15.8448 10.2897 15.8448 9.42481C15.8448 8.55994 16.5489 7.85585 17.4137 7.85585C18.2786 7.85585 18.9827 8.55994 18.9827 9.42481C18.9827 10.2897 18.2786 10.9938 17.4137 10.9938Z" fill="#EB5C38"/>
<path d="M17.4137 89.5412C16.5433 89.5412 15.8448 88.8371 15.8448 87.9723C15.8448 87.1074 16.5489 86.4033 17.4137 86.4033C18.2786 86.4033 18.9827 87.1074 18.9827 87.9723C18.9827 88.8371 18.2786 89.5412 17.4137 89.5412Z" fill="#EB5C38"/>
<path d="M17.4137 128.815C16.5433 128.815 15.8448 128.111 15.8448 127.246C15.8448 126.381 16.5489 125.677 17.4137 125.677C18.2786 125.677 18.9827 126.381 18.9827 127.246C18.9827 128.111 18.2786 128.815 17.4137 128.815Z" fill="#EB5C38"/>
<path d="M17.4137 152C16.5433 152 15.8448 151.296 15.8448 150.431C15.8448 149.566 16.5489 148.862 17.4137 148.862C18.2786 148.862 18.9827 149.566 18.9827 150.431C18.9827 151.296 18.2786 152 17.4137 152Z" fill="#EB5C38"/>
<path d="M17.4137 26.7055C16.5433 26.7055 15.8448 26.0014 15.8448 25.1365C15.8448 24.2717 16.5489 23.5676 17.4137 23.5676C18.2786 23.5676 18.9827 24.2717 18.9827 25.1365C18.9827 26.0014 18.2786 26.7055 17.4137 26.7055Z" fill="#EB5C38"/>
<path d="M17.4137 42.4116C16.5433 42.4116 15.8448 41.7076 15.8448 40.8427C15.8448 39.9778 16.5489 39.2737 17.4137 39.2737C18.2786 39.2737 18.9827 39.9778 18.9827 40.8427C18.9827 41.7076 18.2786 42.4116 17.4137 42.4116Z" fill="#EB5C38"/>
<path d="M9.49134 50.2675C8.62093 50.2675 7.92238 49.5634 7.92238 48.6985C7.92238 47.8337 8.62647 47.1296 9.49134 47.1296C10.3562 47.1296 11.0603 47.8337 11.0603 48.6985C11.0603 49.5634 10.3562 50.2675 9.49134 50.2675Z" fill="#EB5C38"/>
<path d="M1.56895 50.2675C0.704089 50.2675 0 49.5634 0 48.6985C0 47.8337 0.704089 47.1296 1.56895 47.1296C2.43382 47.1296 3.13791 47.8337 3.13791 48.6985C3.13791 49.5634 2.43382 50.2675 1.56895 50.2675Z" fill="#EB5C38"/>
<path d="M9.49134 65.9792C8.62093 65.9792 7.92238 65.2751 7.92238 64.4102C7.92238 63.5454 8.62647 62.8413 9.49134 62.8413C10.3562 62.8413 11.0603 63.5454 11.0603 64.4102C11.0603 65.2751 10.3562 65.9792 9.49134 65.9792Z" fill="#EB5C38"/>
<path d="M9.49134 105.253C8.62093 105.253 7.92238 104.549 7.92238 103.684C7.92238 102.819 8.62647 102.115 9.49134 102.115C10.3562 102.115 11.0603 102.819 11.0603 103.684C11.0603 104.549 10.3562 105.253 9.49134 105.253Z" fill="#EB5C38"/>
<path d="M1.56895 65.9792C0.704089 65.9792 0 65.2751 0 64.4047C0 63.5343 0.704089 62.8358 1.56895 62.8358C2.43382 62.8358 3.13791 63.5398 3.13791 64.4047C3.13791 65.2696 2.43382 65.9737 1.56895 65.9737" fill="#EB5C38"/>
<path d="M1.56895 105.253C0.704089 105.253 0 104.549 0 103.678C0 102.808 0.704089 102.109 1.56895 102.109C2.43382 102.109 3.13791 102.814 3.13791 103.678C3.13791 104.543 2.43382 105.247 1.56895 105.247" fill="#EB5C38"/>
<path d="M9.49134 3.14345C8.62093 3.14345 7.92238 2.43936 7.92238 1.5745C7.92238 0.709633 8.62647 0.005544 9.49134 0.005544C10.3562 0.005544 11.0603 0.709633 11.0603 1.5745C11.0603 2.43936 10.3562 3.14345 9.49134 3.14345Z" fill="#EB5C38"/>
<path d="M9.49134 81.6854C8.62093 81.6854 7.92238 80.9813 7.92238 80.1164C7.92238 79.2515 8.62647 78.5475 9.49134 78.5475C10.3562 78.5475 11.0603 79.2515 11.0603 80.1164C11.0603 80.9813 10.3562 81.6854 9.49134 81.6854Z" fill="#EB5C38"/>
<path d="M9.49134 120.959C8.62093 120.959 7.92238 120.255 7.92238 119.39C7.92238 118.525 8.62647 117.821 9.49134 117.821C10.3562 117.821 11.0603 118.525 11.0603 119.39C11.0603 120.255 10.3562 120.959 9.49134 120.959Z" fill="#EB5C38"/>
<path d="M9.49134 144.144C8.62093 144.144 7.92238 143.44 7.92238 142.575C7.92238 141.71 8.62647 141.006 9.49134 141.006C10.3562 141.006 11.0603 141.71 11.0603 142.575C11.0603 143.44 10.3562 144.144 9.49134 144.144Z" fill="#EB5C38"/>
<path d="M1.56895 3.14345C0.704089 3.14345 0 2.43936 0 1.56895C0 0.698545 0.704089 0 1.56895 0C2.43382 0 3.13791 0.704089 3.13791 1.56895C3.13791 2.43382 2.43382 3.13791 1.56895 3.13791" fill="#EB5C38"/>
<path d="M1.56895 81.6854C0.704089 81.6854 0 80.9813 0 80.1164C0 79.2515 0.704089 78.5475 1.56895 78.5475C2.43382 78.5475 3.13791 79.2515 3.13791 80.1164C3.13791 80.9813 2.43382 81.6854 1.56895 81.6854Z" fill="#EB5C38"/>
<path d="M1.56895 120.959C0.704089 120.959 0 120.255 0 119.39C0 118.525 0.704089 117.821 1.56895 117.821C2.43382 117.821 3.13791 118.525 3.13791 119.39C3.13791 120.255 2.43382 120.959 1.56895 120.959Z" fill="#EB5C38"/>
<path d="M1.56895 144.144C0.704089 144.144 0 143.44 0 142.575C0 141.71 0.704089 141.006 1.56895 141.006C2.43382 141.006 3.13791 141.71 3.13791 142.575C3.13791 143.44 2.43382 144.144 1.56895 144.144Z" fill="#EB5C38"/>
<path d="M9.49134 18.8496C8.62093 18.8496 7.92238 18.1455 7.92238 17.2807C7.92238 16.4158 8.62647 15.7117 9.49134 15.7117C10.3562 15.7117 11.0603 16.4158 11.0603 17.2807C11.0603 18.1455 10.3562 18.8496 9.49134 18.8496Z" fill="#EB5C38"/>
<path d="M1.56895 18.8496C0.704089 18.8496 0 18.1455 0 17.2807C0 16.4158 0.704089 15.7117 1.56895 15.7117C2.43382 15.7117 3.13791 16.4158 3.13791 17.2807C3.13791 18.1455 2.43382 18.8496 1.56895 18.8496Z" fill="#EB5C38"/>
<path d="M9.49134 34.5613C8.62093 34.5613 7.92238 33.8572 7.92238 32.9924C7.92238 32.1275 8.62647 31.4234 9.49134 31.4234C10.3562 31.4234 11.0603 32.1275 11.0603 32.9924C11.0603 33.8572 10.3562 34.5613 9.49134 34.5613Z" fill="#EB5C38"/>
<path d="M1.56895 34.5613C0.704089 34.5613 0 33.8572 0 32.9868C0 32.1164 0.704089 31.4179 1.56895 31.4179C2.43382 31.4179 3.13791 32.122 3.13791 32.9868C3.13791 33.8517 2.43382 34.5558 1.56895 34.5558" fill="#EB5C38"/>
<path d="M9.49134 58.1233C8.62093 58.1233 7.92238 57.4193 7.92238 56.5544C7.92238 55.6895 8.62647 54.9854 9.49134 54.9854C10.3562 54.9854 11.0603 55.6895 11.0603 56.5544C11.0603 57.4193 10.3562 58.1233 9.49134 58.1233Z" fill="#EB5C38"/>
<path d="M9.49134 97.3971C8.62093 97.3971 7.92238 96.693 7.92238 95.8281C7.92238 94.9633 8.62647 94.2592 9.49134 94.2592C10.3562 94.2592 11.0603 94.9633 11.0603 95.8281C11.0603 96.693 10.3562 97.3971 9.49134 97.3971Z" fill="#EB5C38"/>
<path d="M1.56895 58.1233C0.704089 58.1233 0 57.4193 0 56.5544C0 55.6895 0.704089 54.9854 1.56895 54.9854C2.43382 54.9854 3.13791 55.6895 3.13791 56.5544C3.13791 57.4193 2.43382 58.1233 1.56895 58.1233Z" fill="#EB5C38"/>
<path d="M1.56895 97.3971C0.704089 97.3971 0 96.693 0 95.8226C0 94.9522 0.704089 94.2536 1.56895 94.2536C2.43382 94.2536 3.13791 94.9577 3.13791 95.8226C3.13791 96.6874 2.43382 97.3915 1.56895 97.3915" fill="#EB5C38"/>
<path d="M9.49134 73.8295C8.62093 73.8295 7.92238 73.1254 7.92238 72.2606C7.92238 71.3957 8.62647 70.6916 9.49134 70.6916C10.3562 70.6916 11.0603 71.3957 11.0603 72.2606C11.0603 73.1254 10.3562 73.8295 9.49134 73.8295Z" fill="#EB5C38"/>
<path d="M9.49134 113.103C8.62093 113.103 7.92238 112.399 7.92238 111.534C7.92238 110.669 8.62647 109.965 9.49134 109.965C10.3562 109.965 11.0603 110.669 11.0603 111.534C11.0603 112.399 10.3562 113.103 9.49134 113.103Z" fill="#EB5C38"/>
<path d="M9.49134 136.288C8.62093 136.288 7.92238 135.584 7.92238 134.719C7.92238 133.854 8.62647 133.15 9.49134 133.15C10.3562 133.15 11.0603 133.854 11.0603 134.719C11.0603 135.584 10.3562 136.288 9.49134 136.288Z" fill="#EB5C38"/>
<path d="M1.56895 73.8295C0.704089 73.8295 0 73.131 0 72.2606C0 71.3902 0.704089 70.6916 1.56895 70.6916C2.43382 70.6916 3.13791 71.3957 3.13791 72.2606C3.13791 73.1254 2.43382 73.8295 1.56895 73.8295Z" fill="#EB5C38"/>
<path d="M1.56895 113.103C0.704089 113.103 0 112.399 0 111.534C0 110.669 0.704089 109.965 1.56895 109.965C2.43382 109.965 3.13791 110.669 3.13791 111.534C3.13791 112.399 2.43382 113.103 1.56895 113.103Z" fill="#EB5C38"/>
<path d="M1.56895 136.288C0.704089 136.288 0 135.584 0 134.719C0 133.854 0.704089 133.15 1.56895 133.15C2.43382 133.15 3.13791 133.854 3.13791 134.719C3.13791 135.584 2.43382 136.288 1.56895 136.288Z" fill="#EB5C38"/>
<path d="M9.49134 10.9938C8.62093 10.9938 7.92238 10.2897 7.92238 9.42481C7.92238 8.55994 8.62647 7.85585 9.49134 7.85585C10.3562 7.85585 11.0603 8.55994 11.0603 9.42481C11.0603 10.2897 10.3562 10.9938 9.49134 10.9938Z" fill="#EB5C38"/>
<path d="M9.49134 89.5412C8.62093 89.5412 7.92238 88.8371 7.92238 87.9723C7.92238 87.1074 8.62647 86.4033 9.49134 86.4033C10.3562 86.4033 11.0603 87.1074 11.0603 87.9723C11.0603 88.8371 10.3562 89.5412 9.49134 89.5412Z" fill="#EB5C38"/>
<path d="M9.49134 128.815C8.62093 128.815 7.92238 128.111 7.92238 127.246C7.92238 126.381 8.62647 125.677 9.49134 125.677C10.3562 125.677 11.0603 126.381 11.0603 127.246C11.0603 128.111 10.3562 128.815 9.49134 128.815Z" fill="#EB5C38"/>
<path d="M9.49134 152C8.62093 152 7.92238 151.296 7.92238 150.431C7.92238 149.566 8.62647 148.862 9.49134 148.862C10.3562 148.862 11.0603 149.566 11.0603 150.431C11.0603 151.296 10.3562 152 9.49134 152Z" fill="#EB5C38"/>
<path d="M1.56895 10.9938C0.704089 10.9938 0 10.2952 0 9.42481C0 8.5544 0.704089 7.85585 1.56895 7.85585C2.43382 7.85585 3.13791 8.55994 3.13791 9.42481C3.13791 10.2897 2.43382 10.9938 1.56895 10.9938Z" fill="#EB5C38"/>
<path d="M1.56895 89.5412C0.704089 89.5412 0 88.8371 0 87.9723C0 87.1074 0.704089 86.4033 1.56895 86.4033C2.43382 86.4033 3.13791 87.1074 3.13791 87.9723C3.13791 88.8371 2.43382 89.5412 1.56895 89.5412Z" fill="#EB5C38"/>
<path d="M1.56895 128.815C0.704089 128.815 0 128.111 0 127.24C0 126.37 0.704089 125.672 1.56895 125.672C2.43382 125.672 3.13791 126.376 3.13791 127.24C3.13791 128.105 2.43382 128.809 1.56895 128.809" fill="#EB5C38"/>
<path d="M1.56895 152C0.704089 152 0 151.296 0 150.431C0 149.566 0.704089 148.862 1.56895 148.862C2.43382 148.862 3.13791 149.566 3.13791 150.431C3.13791 151.296 2.43382 152 1.56895 152Z" fill="#EB5C38"/>
<path d="M9.49134 26.7055C8.62093 26.7055 7.92238 26.0014 7.92238 25.1365C7.92238 24.2717 8.62647 23.5676 9.49134 23.5676C10.3562 23.5676 11.0603 24.2717 11.0603 25.1365C11.0603 26.0014 10.3562 26.7055 9.49134 26.7055Z" fill="#EB5C38"/>
<path d="M1.56895 26.7055C0.704089 26.7055 0 26.0014 0 25.1365C0 24.2717 0.704089 23.5676 1.56895 23.5676C2.43382 23.5676 3.13791 24.2717 3.13791 25.1365C3.13791 26.0014 2.43382 26.7055 1.56895 26.7055Z" fill="#EB5C38"/>
<path d="M9.49134 42.4116C8.62093 42.4116 7.92238 41.7076 7.92238 40.8427C7.92238 39.9778 8.62647 39.2737 9.49134 39.2737C10.3562 39.2737 11.0603 39.9778 11.0603 40.8427C11.0603 41.7076 10.3562 42.4116 9.49134 42.4116Z" fill="#EB5C38"/>
<path d="M1.56895 42.4116C0.704089 42.4116 0 41.7131 0 40.8427C0 39.9723 0.704089 39.2737 1.56895 39.2737C2.43382 39.2737 3.13791 39.9778 3.13791 40.8427C3.13791 41.7076 2.43382 42.4116 1.56895 42.4116Z" fill="#EB5C38"/>
</svg>
