<svg width="70" height="70" viewBox="0 0 70 70" fill="none" xmlns="http://www.w3.org/2000/svg">
<rect width="70" height="70" rx="10" fill="white"/>
<path fill-rule="evenodd" clip-rule="evenodd" d="M43.1721 16.916C43.4632 16.1736 44.2992 15.8086 45.0393 16.1007L50.7359 18.3489C51.459 18.6343 51.826 19.4436 51.5652 20.1779L49.4455 26.1454C49.1786 26.8969 48.3549 27.289 47.6057 27.0213C46.8566 26.7535 46.4656 25.9273 46.7326 25.1758L47.685 22.4945L20.3561 35.5143C19.6377 35.8565 18.7788 35.5498 18.4376 34.8292C18.0964 34.1086 18.4021 33.247 19.1205 32.9048L46.591 19.8175L43.9848 18.7889C43.2448 18.4969 42.8809 17.6583 43.1721 16.916ZM46.376 34.1829V52.1111H50.12V34.1829H46.376ZM44.2839 32.146C44.7972 31.6083 45.5069 31.294 46.2608 31.294H50.2352C50.9891 31.294 51.6988 31.6083 52.2121 32.146C52.7232 32.6814 53 33.3948 53 34.1263V53.5556C53 54.3533 52.3553 55 51.56 55H44.936C44.1407 55 43.496 54.3533 43.496 53.5556V34.1263C43.496 33.3948 43.7728 32.6814 44.2839 32.146ZM33.128 38.3463V52.1111H36.872V38.3463H33.128ZM31.0359 36.3094C31.5492 35.7718 32.2589 35.4575 33.0128 35.4575H36.9872C37.7411 35.4575 38.4508 35.7718 38.9641 36.3094C39.4752 36.8449 39.752 37.5583 39.752 38.2897V53.5556C39.752 54.3533 39.1073 55 38.312 55H31.688C30.8927 55 30.248 54.3533 30.248 53.5556V38.2897C30.248 37.5583 30.5248 36.8449 31.0359 36.3094ZM19.88 42.5097V52.1111H23.624V42.5097H19.88ZM17.7879 40.4728C18.3012 39.9352 19.0109 39.6209 19.7648 39.6209H23.7392C24.4931 39.6209 25.2028 39.9352 25.7161 40.4728C26.2272 41.0083 26.504 41.7217 26.504 42.4531V53.5556C26.504 54.3533 25.8593 55 25.064 55H18.44C17.6447 55 17 54.3533 17 53.5556V42.4531C17 41.7217 17.2768 41.0083 17.7879 40.4728Z" fill="#0C2340"/>
</svg>
