<svg width="70" height="70" viewBox="0 0 70 70" fill="none" xmlns="http://www.w3.org/2000/svg">
<rect width="70" height="70" rx="10" fill="white"/>
<path d="M35.5 35C34.61 35 33.74 35.2639 32.9999 35.7584C32.2599 36.2529 31.6831 36.9557 31.3425 37.7779C31.0019 38.6002 30.9128 39.505 31.0865 40.3779C31.2601 41.2508 31.6887 42.0526 32.318 42.682C32.9474 43.3113 33.7492 43.7399 34.6221 43.9135C35.495 44.0872 36.3998 43.9981 37.2221 43.6575C38.0443 43.3169 38.7471 42.7401 39.2416 42.0001C39.7361 41.26 40 40.39 40 39.5C40 38.3065 39.5259 37.1619 38.682 36.318C37.8381 35.4741 36.6935 35 35.5 35ZM35.5 41C35.2033 41 34.9133 40.912 34.6666 40.7472C34.42 40.5824 34.2277 40.3481 34.1142 40.074C34.0006 39.7999 33.9709 39.4983 34.0288 39.2074C34.0867 38.9164 34.2296 38.6491 34.4393 38.4393C34.6491 38.2296 34.9164 38.0867 35.2074 38.0288C35.4983 37.9709 35.7999 38.0006 36.074 38.1142C36.3481 38.2277 36.5824 38.42 36.7472 38.6666C36.912 38.9133 37 39.2033 37 39.5C37 39.8978 36.842 40.2794 36.5607 40.5607C36.2794 40.842 35.8978 41 35.5 41ZM34.435 31.565C34.5777 31.7016 34.7459 31.8086 34.93 31.88C35.1096 31.9594 35.3037 32.0003 35.5 32.0003C35.6963 32.0003 35.8904 31.9594 36.07 31.88C36.2541 31.8086 36.4223 31.7016 36.565 31.565L40 28.19C40.2904 27.8996 40.4536 27.5057 40.4536 27.095C40.4536 26.6843 40.2904 26.2904 40 26C39.7096 25.7096 39.3157 25.5464 38.905 25.5464C38.4943 25.5464 38.1004 25.7096 37.81 26L37 26.885V21.5C37 21.1022 36.842 20.7206 36.5607 20.4393C36.2794 20.158 35.8978 20 35.5 20C35.1022 20 34.7206 20.158 34.4393 20.4393C34.158 20.7206 34 21.1022 34 21.5V26.885L33.19 26C32.8996 25.7096 32.5057 25.5464 32.095 25.5464C31.6843 25.5464 31.2904 25.7096 31 26C30.7096 26.2904 30.5464 26.6843 30.5464 27.095C30.5464 27.5057 30.7096 27.8996 31 28.19L34.435 31.565ZM46 39.5C46 39.2033 45.912 38.9133 45.7472 38.6666C45.5824 38.42 45.3481 38.2277 45.074 38.1142C44.7999 38.0006 44.4983 37.9709 44.2074 38.0288C43.9164 38.0867 43.6491 38.2296 43.4393 38.4393C43.2296 38.6491 43.0867 38.9164 43.0288 39.2074C42.9709 39.4983 43.0006 39.7999 43.1142 40.074C43.2277 40.3481 43.42 40.5824 43.6666 40.7472C43.9133 40.912 44.2033 41 44.5 41C44.8978 41 45.2794 40.842 45.5607 40.5607C45.842 40.2794 46 39.8978 46 39.5ZM47.5 29H43C42.6022 29 42.2206 29.158 41.9393 29.4393C41.658 29.7206 41.5 30.1022 41.5 30.5C41.5 30.8978 41.658 31.2794 41.9393 31.5607C42.2206 31.842 42.6022 32 43 32H47.5C47.8978 32 48.2794 32.158 48.5607 32.4393C48.842 32.7206 49 33.1022 49 33.5V45.5C49 45.8978 48.842 46.2794 48.5607 46.5607C48.2794 46.842 47.8978 47 47.5 47H23.5C23.1022 47 22.7206 46.842 22.4393 46.5607C22.158 46.2794 22 45.8978 22 45.5V33.5C22 33.1022 22.158 32.7206 22.4393 32.4393C22.7206 32.158 23.1022 32 23.5 32H28C28.3978 32 28.7794 31.842 29.0607 31.5607C29.342 31.2794 29.5 30.8978 29.5 30.5C29.5 30.1022 29.342 29.7206 29.0607 29.4393C28.7794 29.158 28.3978 29 28 29H23.5C22.3065 29 21.1619 29.4741 20.318 30.318C19.4741 31.1619 19 32.3065 19 33.5V45.5C19 46.6935 19.4741 47.8381 20.318 48.682C21.1619 49.5259 22.3065 50 23.5 50H47.5C48.6935 50 49.8381 49.5259 50.682 48.682C51.5259 47.8381 52 46.6935 52 45.5V33.5C52 32.3065 51.5259 31.1619 50.682 30.318C49.8381 29.4741 48.6935 29 47.5 29ZM25 39.5C25 39.7967 25.088 40.0867 25.2528 40.3334C25.4176 40.58 25.6519 40.7723 25.926 40.8858C26.2001 40.9994 26.5017 41.0291 26.7926 40.9712C27.0836 40.9133 27.3509 40.7704 27.5607 40.5607C27.7704 40.3509 27.9133 40.0836 27.9712 39.7926C28.0291 39.5017 27.9994 39.2001 27.8858 38.926C27.7723 38.6519 27.58 38.4176 27.3334 38.2528C27.0867 38.088 26.7967 38 26.5 38C26.1022 38 25.7206 38.158 25.4393 38.4393C25.158 38.7206 25 39.1022 25 39.5Z" fill="#0C2340"/>
</svg>
