<svg width="70" height="70" viewBox="0 0 70 70" fill="none" xmlns="http://www.w3.org/2000/svg">
<rect width="70" height="70" rx="10" fill="white"/>
<path d="M35 23.5715C33.5616 23.5715 32.1555 23.9904 30.9595 24.7753C29.7635 25.5602 28.8313 26.6758 28.2809 27.981C27.7304 29.2862 27.5864 30.7224 27.867 32.108C28.1476 33.4936 28.8403 34.7663 29.8574 35.7653C30.8745 36.7642 32.1704 37.4445 33.5812 37.7201C34.9919 37.9957 36.4542 37.8543 37.7832 37.3137C39.1121 36.773 40.2479 35.8575 41.0471 34.6828C41.8462 33.5082 42.2727 32.1272 42.2727 30.7144C42.2727 28.82 41.5065 27.0032 40.1426 25.6636C38.7787 24.3241 36.9288 23.5715 35 23.5715ZM35 35.0002C34.137 35.0002 33.2933 34.7488 32.5757 34.2779C31.8581 33.807 31.2988 33.1377 30.9685 32.3545C30.6383 31.5714 30.5518 30.7097 30.7202 29.8783C30.8886 29.047 31.3042 28.2833 31.9144 27.684C32.5247 27.0846 33.3022 26.6764 34.1487 26.511C34.9952 26.3457 35.8725 26.4305 36.6699 26.7549C37.4672 27.0793 38.1488 27.6286 38.6282 28.3334C39.1077 29.0382 39.3636 29.8668 39.3636 30.7144C39.3636 31.8511 38.9039 32.9412 38.0856 33.7449C37.2672 34.5487 36.1573 35.0002 35 35.0002ZM35 15C30.758 15.0047 26.6911 16.6619 23.6916 19.6079C20.6921 22.5539 19.0048 26.5482 19 30.7144C19 36.3216 21.6382 42.2646 26.6364 47.9021C28.8822 50.4496 31.4099 52.7435 34.1727 54.7415C34.4173 54.9097 34.7087 55 35.0073 55C35.3059 55 35.5973 54.9097 35.8418 54.7415C38.5995 52.7427 41.1223 50.4488 43.3636 47.9021C48.3545 42.2646 51 36.3216 51 30.7144C50.9952 26.5482 49.3079 22.5539 46.3084 19.6079C43.3089 16.6619 39.242 15.0047 35 15ZM35 51.7861C31.9945 49.4646 21.9091 40.9378 21.9091 30.7144C21.9091 27.3045 23.2883 24.0342 25.7433 21.623C28.1984 19.2118 31.5281 17.8572 35 17.8572C38.4719 17.8572 41.8016 19.2118 44.2567 21.623C46.7117 24.0342 48.0909 27.3045 48.0909 30.7144C48.0909 40.9342 38.0055 49.4646 35 51.7861Z" fill="#0C2340"/>
</svg>
