<svg width="70" height="70" viewBox="0 0 70 70" fill="none" xmlns="http://www.w3.org/2000/svg">
<rect width="70" height="70" rx="10" fill="white"/>
<path fill-rule="evenodd" clip-rule="evenodd" d="M21.1539 18.7857C20.7866 18.7857 20.4345 18.9325 20.1748 19.1937C19.9151 19.4549 19.7693 19.8092 19.7693 20.1786L19.7693 35.3352C19.7649 38.0042 20.5022 40.6214 21.898 42.8913C23.2938 45.1612 25.2925 46.9934 27.6685 48.1813L27.6937 48.1941L34.9872 52.0288L42.2865 48.0377C42.3013 48.0295 42.3164 48.0217 42.3316 48.0141C44.6847 46.8378 46.6682 45.0293 48.0624 42.7889C49.4556 40.5501 50.206 37.9674 50.2308 35.3264V20.1786C50.2308 19.8092 50.0849 19.4549 49.8252 19.1937C49.5656 18.9325 49.2134 18.7857 48.8462 18.7857H21.1539ZM18.2167 17.2239C18.9957 16.4402 20.0522 16 21.1539 16H48.8462C49.9478 16 51.0044 16.4402 51.7834 17.2239C52.5624 18.0075 53 19.0703 53 20.1786V35.3454C52.9717 38.5028 52.0751 41.5907 50.4097 44.267C48.7488 46.9359 46.3879 49.0918 43.5872 50.4971L35.6613 54.8309C35.2559 55.0525 34.7675 55.0565 34.3587 54.8416L26.4233 50.6695C23.5906 49.2504 21.2077 47.0642 19.5429 44.3567C17.8758 41.6456 16.995 38.5196 17 35.3317V20.1786C17 19.0703 17.4377 18.0075 18.2167 17.2239Z" fill="#0C2340"/>
<path fill-rule="evenodd" clip-rule="evenodd" d="M35 21.5714C35.7647 21.5714 36.3846 22.195 36.3846 22.9643V24.5347C37.3324 24.7819 38.2065 25.2807 38.91 25.9902C39.9463 27.0354 40.5278 28.4521 40.5278 29.9286C40.5278 30.6978 39.9079 31.3214 39.1432 31.3214C38.3785 31.3214 37.7586 30.6978 37.7586 29.9286C37.7586 29.1886 37.4671 28.4797 36.9494 27.9575C36.4317 27.4355 35.7305 27.1429 35 27.1429C34.9656 27.1429 34.9313 27.1416 34.897 27.139C34.5415 27.1123 34.1844 27.1633 33.85 27.2885C33.5157 27.4138 33.2117 27.6104 32.9591 27.8652C32.7064 28.12 32.511 28.427 32.3865 28.7654C32.2619 29.1037 32.2111 29.4654 32.2376 29.8255C32.2402 29.8598 32.2414 29.8942 32.2414 29.9286C32.2414 30.4243 32.4562 30.8506 33.0393 31.3407C33.6682 31.8693 34.5455 32.3199 35.6205 32.862C35.6454 32.8745 35.6704 32.8872 35.6956 32.8998C36.6767 33.3944 37.8346 33.978 38.7362 34.7358C39.6961 35.5425 40.5098 36.6672 40.5275 38.2334C40.5751 38.9752 40.4672 39.7191 40.2104 40.4165C39.9477 41.1298 39.5355 41.7779 39.0016 42.3164C38.4676 42.8549 37.8246 43.2711 37.1162 43.5364C36.8772 43.6259 36.6327 43.6975 36.3846 43.751V45.25C36.3846 46.0193 35.7647 46.6429 35 46.6429C34.2353 46.6429 33.6154 46.0193 33.6154 45.25V43.6796C32.6676 43.4324 31.7935 42.9336 31.09 42.224C30.0537 41.1789 29.4722 39.7622 29.4722 38.2857C29.4722 37.5165 30.0921 36.8929 30.8568 36.8929C31.6215 36.8929 32.2414 37.5165 32.2414 38.2857C32.2414 39.0257 32.5329 39.7346 33.0506 40.2568C33.5683 40.7788 34.2695 41.0714 35 41.0714C35.0344 41.0714 35.0687 41.0727 35.103 41.0753C35.4585 41.102 35.8156 41.051 36.15 40.9258C36.4843 40.8005 36.7883 40.6039 37.0409 40.3491C37.2936 40.0943 37.489 39.7873 37.6135 39.4489C37.7381 39.1105 37.7889 38.7489 37.7624 38.3888C37.7598 38.3545 37.7586 38.3201 37.7586 38.2857C37.7586 37.7899 37.5438 37.3637 36.9607 36.8736C36.3318 36.345 35.4545 35.8944 34.3795 35.3523C34.3546 35.3397 34.3295 35.3271 34.3044 35.3144C33.3233 34.8199 32.1654 34.2363 31.2638 33.4785C30.3039 32.6717 29.4902 31.5471 29.4725 29.9809C29.4249 29.2391 29.5328 28.4952 29.7896 27.7978C30.0523 27.0844 30.4645 26.4364 30.9984 25.8979C31.5324 25.3594 32.1754 24.9432 32.8838 24.6779C33.1228 24.5884 33.3673 24.5168 33.6154 24.4633V22.9643C33.6154 22.195 34.2353 21.5714 35 21.5714Z" fill="#0C2340"/>
</svg>
