<svg width="70" height="70" viewBox="0 0 70 70" fill="none" xmlns="http://www.w3.org/2000/svg">
<rect width="70" height="70" rx="10" fill="white"/>
<path d="M20.8571 15C19.8342 15 18.8531 15.3951 18.1297 16.0983C17.4064 16.8016 17 17.7554 17 18.75V51.25C17 52.2446 17.4064 53.1984 18.1297 53.9016C18.8531 54.6049 19.8342 55 20.8571 55H38.8571C39.8801 55 40.8612 54.6049 41.5846 53.9016C42.3079 53.1984 42.7143 52.2446 42.7143 51.25V47.5C42.7143 47.1685 42.5788 46.8505 42.3377 46.6161C42.0966 46.3817 41.7696 46.25 41.4286 46.25C40.3666 46.25 39.6877 45.995 39.2274 45.66C38.7569 45.3175 38.3994 44.805 38.1371 44.1025C37.5869 42.6325 37.5714 40.685 37.5714 38.75C37.5714 38.5856 37.538 38.4228 37.4731 38.2709C37.4083 38.119 37.3132 37.9811 37.1934 37.865L36.458 37.1475L33.3389 34.115C32.138 32.9475 31.7857 32.165 31.7189 31.7275C31.6674 31.3775 31.7754 31.1425 32.0326 30.9025C32.5829 30.39 32.9763 30.0425 33.4211 29.9375C33.686 29.8725 34.2903 29.8275 35.3754 30.8825L43.0897 38.3825C43.3308 38.6172 43.6579 38.7492 43.9991 38.7494C44.168 38.7496 44.3353 38.7173 44.4915 38.6546C44.6476 38.5918 44.7895 38.4998 44.909 38.3838C45.0285 38.2677 45.1234 38.1299 45.1882 37.9782C45.2529 37.8265 45.2863 37.6639 45.2864 37.4996C45.2865 37.3354 45.2534 37.1727 45.1889 37.0209C45.1243 36.8692 45.0297 36.7312 44.9103 36.615L42.7143 34.4825V26.7675L49.2971 33.1675C49.6557 33.5157 49.9402 33.9292 50.1343 34.3843C50.3285 34.8394 50.4285 35.3273 50.4286 35.82V53.75C50.4286 54.0815 50.564 54.3995 50.8051 54.6339C51.0463 54.8683 51.3733 55 51.7143 55C52.0553 55 52.3823 54.8683 52.6234 54.6339C52.8645 54.3995 53 54.0815 53 53.75V35.82C52.9996 34.1631 52.3226 32.5742 51.1177 31.4025L42.7143 23.2325V18.75C42.7143 17.7554 42.3079 16.8016 41.5846 16.0983C40.8612 15.3951 39.8801 15 38.8571 15H20.8571ZM40.1429 23.75V31.9825L37.196 29.115C35.7071 27.67 34.2286 27.1725 32.8117 27.5075C32.5334 27.5743 32.2635 27.6707 32.0069 27.795C30.8574 27.4713 29.6463 27.4119 28.4692 27.6215C27.292 27.8312 26.1812 28.3041 25.2245 29.003C24.2677 29.7018 23.4912 30.6075 22.9564 31.6483C22.4216 32.6891 22.1431 33.8365 22.1429 35C22.1428 36.4499 22.5749 37.8687 23.387 39.0847C24.1991 40.3007 25.3563 41.2619 26.7186 41.8517C28.0809 42.4416 29.5898 42.635 31.0628 42.4084C32.5357 42.1818 33.9096 41.545 35.018 40.575C35.0617 42.02 35.2109 43.6 35.72 44.9575C36.1006 45.975 36.7074 46.9475 37.6846 47.6575L37.7 47.6725C36.917 47.9119 36.2329 48.3879 35.7473 49.0313C35.2618 49.6747 35 50.452 35 51.25V52.5H24.7143V51.25C24.7143 50.2554 24.3079 49.3016 23.5846 48.5984C22.8612 47.8951 21.8801 47.5 20.8571 47.5H19.5714V22.5H20.8571C21.8801 22.5 22.8612 22.1049 23.5846 21.4017C24.3079 20.6984 24.7143 19.7446 24.7143 18.75V17.5H35V18.75C35 19.7446 35.4064 20.6984 36.1297 21.4017C36.8531 22.1049 37.8342 22.5 38.8571 22.5H40.1429V23.75ZM40.1429 51.25V51.2725C40.1368 51.6001 39.9987 51.9123 39.7582 52.1419C39.5177 52.3715 39.1942 52.5001 38.8571 52.5H37.5714V51.25C37.5714 50.9185 37.7069 50.6005 37.948 50.3661C38.1891 50.1317 38.5161 50 38.8571 50H40.1429V51.25ZM24.7143 35C24.7143 33.7285 25.2126 32.5047 26.1078 31.5777C27.003 30.6507 28.2279 30.0901 29.5331 30.01C29.2143 30.585 29.0523 31.285 29.1757 32.0925C29.3583 33.2975 30.1477 34.55 31.5183 35.8825L33.8506 38.15C33.181 38.9522 32.2724 39.533 31.2495 39.8127C30.2266 40.0924 29.1397 40.0571 28.1382 39.7119C27.1368 39.3666 26.2699 38.7282 25.6568 37.8845C25.0437 37.0407 24.7144 36.0331 24.7143 35ZM22.1429 17.5V18.75C22.1429 19.0815 22.0074 19.3995 21.7663 19.6339C21.5252 19.8683 21.1981 20 20.8571 20H19.5714V18.75C19.5714 18.4185 19.7069 18.1005 19.948 17.8661C20.1891 17.6317 20.5162 17.5 20.8571 17.5H22.1429ZM19.5714 50H20.8571C21.1981 50 21.5252 50.1317 21.7663 50.3661C22.0074 50.6005 22.1429 50.9185 22.1429 51.25V52.5H20.8571C20.5162 52.5 20.1891 52.3683 19.948 52.1339C19.7069 51.8995 19.5714 51.5815 19.5714 51.25V50ZM40.1429 20H38.8571C38.5161 20 38.1891 19.8683 37.948 19.6339C37.7069 19.3995 37.5714 19.0815 37.5714 18.75V17.5H38.8571C39.1981 17.5 39.5252 17.6317 39.7663 17.8661C40.0074 18.1005 40.1429 18.4185 40.1429 18.75V20Z" fill="#0C2340"/>
</svg>
