<svg width="232" height="65" viewBox="0 0 232 65" fill="none" xmlns="http://www.w3.org/2000/svg">
<path d="M77.341 9.63498H66.604V37.582H58.374V9.63498H47.688V2.45999H77.341V9.63498Z" fill="#45768A"/>
<path d="M98.059 9.48499H90.081V19.368H98.059C101.571 19.368 103.528 17.613 103.528 14.451C103.528 11.289 101.571 9.48499 98.059 9.48499ZM94.898 25.991H90.131V37.582H81.903V2.45999H99.012C106.689 2.45999 111.656 7.27699 111.656 14.352C111.77 16.8109 111.042 19.2351 109.592 21.2239C108.141 23.2126 106.055 24.6467 103.679 25.289L113.613 37.582H103.829L94.898 25.991Z" fill="#45768A"/>
<path d="M126.454 2.45898H118.225V37.581H126.454V2.45898Z" fill="#45768A"/>
<path d="M131.92 33.416L136.184 27.446C139.29 29.8715 143.131 31.1638 147.072 31.109C151.237 31.109 153.846 29.603 153.846 27.195C153.846 24.937 151.638 23.733 146.721 23.181C137.138 22.128 132.873 18.865 132.873 12.494C132.873 6.02099 138.693 1.655 147.273 1.655C152.011 1.60064 156.652 3.00208 160.568 5.66998L156.705 11.439C154.042 9.57799 150.872 8.57996 147.624 8.57998C143.56 8.57998 140.9 10.035 140.9 12.292C140.9 14.5 142.807 15.604 147.774 16.207C157.307 17.307 161.923 20.922 161.923 27.245C161.923 33.918 155.952 38.384 147.123 38.384C141.644 38.4705 136.293 36.7217 131.923 33.416" fill="#45768A"/>
<path d="M166.637 22.428V2.45898H174.865V22.428C174.865 27.797 177.725 31.058 182.592 31.058C187.359 31.058 190.269 27.797 190.269 22.428V2.45898H198.498V22.428C198.498 32.464 192.677 38.328 182.592 38.328C172.507 38.328 166.637 32.459 166.637 22.428Z" fill="#45768A"/>
<path d="M205.617 2.45898H213.845V30.159H231.507V37.585H205.617V2.45898Z" fill="#45768A"/>
<path d="M16.298 39.64V35.566H4.07399V23.334H0V39.634H0.00799561V39.641L16.298 39.64Z" fill="#334360"/>
<path d="M16.298 0.000976562V4.07498H4.07399V16.307H0V0.00698853H0.00799561V0L16.298 0.000976562Z" fill="#334360"/>
<path d="M23.635 39.64V35.566H35.86V23.334H39.934V39.634H39.926V39.641L23.635 39.64Z" fill="#334360"/>
<path d="M23.635 0.000976562V4.07498H35.86V16.307H39.934V0.00698853H39.926V0L23.635 0.000976562Z" fill="#334360"/>
<path d="M8.263 8.15399V13.959H25.682V31.388H31.487V8.16299H31.474V8.15399H8.263Z" fill="#45768A"/>
<path d="M8.26799 16.869V22.669H16.968V31.385H22.778V16.869H8.26799Z" fill="#45768A"/>
<path d="M14.069 25.582H8.26399V31.389H14.069V25.582Z" fill="#45768A"/>
<path d="M137.081 51.295C136.193 51.2978 135.336 51.6205 134.666 52.204C133.997 52.7875 133.56 53.5927 133.436 54.472C133.316 54.853 133.292 55.2575 133.366 55.65C133.439 56.0424 133.608 56.4108 133.858 56.7226C134.107 57.0344 134.43 57.28 134.796 57.4379C135.163 57.5958 135.563 57.6611 135.961 57.628C136.849 57.6141 137.704 57.2845 138.372 56.6982C139.039 56.1119 139.476 55.3072 139.605 54.428C139.719 54.0484 139.739 53.6468 139.663 53.2578C139.587 52.8688 139.417 52.5041 139.169 52.1954C138.92 51.8866 138.6 51.643 138.237 51.4856C137.873 51.3282 137.476 51.2618 137.081 51.292M141.865 54.53C141.316 57.665 139.096 59.702 136.184 59.702C135.551 59.7466 134.916 59.6469 134.327 59.4105C133.738 59.1741 133.21 58.807 132.784 58.337L131.784 64.121H129.463L132.029 49.421H134.129L133.946 50.603C134.963 49.6633 136.308 49.1605 137.692 49.203C140.563 49.203 142.392 51.565 141.866 54.537" fill="#323232"/>
<path d="M152.35 50.094L151.006 52.009C150.535 51.6085 149.935 51.3913 149.316 51.397C148.517 51.4534 147.764 51.7948 147.195 52.3591C146.626 52.9234 146.279 53.6732 146.216 54.472L145.341 59.481H143.024L144.795 49.422H146.895L146.671 50.807C147.029 50.311 147.5 49.9079 148.045 49.6314C148.591 49.355 149.195 49.2132 149.806 49.218C150.736 49.173 151.647 49.4866 152.352 50.094" fill="#323232"/>
<path d="M160.533 53.799C160.553 53.4604 160.501 53.1215 160.38 52.8046C160.259 52.4878 160.072 52.2004 159.831 51.9616C159.59 51.7228 159.301 51.538 158.984 51.4196C158.666 51.3012 158.326 51.2519 157.988 51.275C156.995 51.2995 156.052 51.7117 155.359 52.4232C154.666 53.1347 154.28 54.089 154.282 55.082C154.262 55.4231 154.315 55.7646 154.438 56.0838C154.56 56.4029 154.749 56.6924 154.991 56.9331C155.234 57.1737 155.525 57.36 155.845 57.4797C156.165 57.5993 156.507 57.6495 156.848 57.627C157.841 57.5969 158.782 57.1795 159.471 56.4641C160.159 55.7486 160.541 54.792 160.533 53.799ZM151.982 55.388C151.975 54.5664 152.134 53.7518 152.448 52.9925C152.761 52.2332 153.224 51.5446 153.809 50.9674C154.394 50.3902 155.088 49.9362 155.852 49.6323C156.615 49.3284 157.432 49.1807 158.253 49.198C161.002 49.198 162.814 50.929 162.814 53.514C162.829 54.3344 162.677 55.1493 162.369 55.9096C162.06 56.6699 161.601 57.36 161.019 57.9383C160.437 58.5166 159.744 58.9711 158.982 59.2746C158.219 59.578 157.403 59.7241 156.583 59.704C153.814 59.704 151.982 57.974 151.982 55.388Z" fill="#323232"/>
<path d="M170.714 51.295C169.826 51.2978 168.969 51.6205 168.299 52.204C167.63 52.7875 167.193 53.5927 167.069 54.472C166.949 54.853 166.925 55.2575 166.999 55.65C167.072 56.0424 167.241 56.4108 167.491 56.7226C167.74 57.0344 168.063 57.28 168.429 57.4379C168.796 57.5958 169.196 57.6611 169.594 57.628C170.482 57.6141 171.337 57.2845 172.005 56.6982C172.672 56.1119 173.109 55.3072 173.238 54.428C173.352 54.0484 173.372 53.6468 173.296 53.2578C173.22 52.8688 173.05 52.5041 172.802 52.1954C172.553 51.8866 172.233 51.643 171.87 51.4856C171.506 51.3282 171.109 51.2618 170.714 51.292M175.498 54.53C174.949 57.665 172.729 59.702 169.817 59.702C169.184 59.7466 168.549 59.6469 167.96 59.4105C167.371 59.1741 166.843 58.807 166.417 58.337L165.417 64.121H163.096L165.662 49.421H167.762L167.579 50.603C168.596 49.6633 169.941 49.1605 171.325 49.203C174.196 49.203 176.025 51.565 175.499 54.537" fill="#323232"/>
<path d="M179.448 53.535H185.312C185.474 52.028 184.62 51.193 182.912 51.193C182.162 51.1687 181.423 51.3821 180.802 51.8027C180.18 52.2233 179.707 52.8296 179.451 53.535M179.125 55.306C179.044 56.792 180.025 57.706 181.772 57.706C182.922 57.7123 184.044 57.3484 184.972 56.668L186.152 58.113C184.898 59.1973 183.29 59.7844 181.632 59.763C178.293 59.763 176.379 57.604 176.932 54.448C177.114 52.9711 177.842 51.6156 178.972 50.6474C180.102 49.6793 181.553 49.1684 183.04 49.215C186.705 49.215 188.13 51.821 187.154 55.303L179.125 55.306Z" fill="#323232"/>
<path d="M197.752 50.094L196.407 52.009C195.936 51.6084 195.336 51.3911 194.717 51.397C193.918 51.4538 193.166 51.7954 192.597 52.3596C192.028 52.9238 191.68 53.6733 191.617 54.472L190.742 59.481H188.42L190.191 49.422H192.291L192.066 50.807C192.424 50.311 192.895 49.908 193.44 49.6315C193.986 49.3551 194.59 49.2133 195.201 49.218C196.131 49.1733 197.042 49.4868 197.748 50.094" fill="#323232"/>
<path d="M201.313 55.978C201.13 57.017 201.374 57.566 202.331 57.566C202.805 57.5622 203.272 57.4508 203.696 57.24L203.996 59.134C203.29 59.447 202.528 59.6134 201.756 59.623C199.577 59.623 198.58 58.36 198.988 56.141L199.822 51.356H197.908L198.254 49.422H200.174L200.622 46.796L202.984 46.551L202.475 49.422H205.305L204.959 51.356H202.129L201.313 55.978Z" fill="#323232"/>
<path d="M207.462 46.45C207.551 46.0642 207.769 45.7204 208.08 45.4758C208.391 45.2313 208.777 45.1007 209.173 45.106C209.359 45.0933 209.545 45.1248 209.716 45.1979C209.887 45.271 210.038 45.3837 210.158 45.5267C210.277 45.6697 210.36 45.8389 210.401 46.0204C210.443 46.2019 210.44 46.3906 210.394 46.571C210.317 46.9553 210.108 47.3004 209.803 47.5461C209.498 47.7917 209.116 47.9223 208.724 47.915C208.536 47.9295 208.348 47.8996 208.174 47.8279C208 47.7561 207.845 47.6444 207.722 47.5017C207.6 47.3591 207.512 47.1896 207.467 47.0069C207.421 46.8242 207.42 46.6334 207.462 46.45ZM207.262 49.422H209.574L207.803 59.481H205.482L207.262 49.422Z" fill="#323232"/>
<path d="M213.243 53.535H219.108C219.27 52.028 218.415 51.193 216.708 51.193C215.958 51.1688 215.219 51.3822 214.597 51.8028C213.976 52.2234 213.503 52.8296 213.246 53.535M212.921 55.306C212.84 56.792 213.821 57.706 215.568 57.706C216.718 57.7122 217.84 57.3483 218.768 56.668L219.948 58.113C218.694 59.1973 217.086 59.7843 215.428 59.763C212.089 59.763 210.175 57.604 210.728 54.448C210.911 52.9711 211.638 51.6157 212.768 50.6476C213.899 49.6796 215.35 49.1686 216.837 49.215C220.502 49.215 221.927 51.821 220.951 55.303L212.921 55.306Z" fill="#323232"/>
<path d="M221.794 58.178L222.994 56.569C223.445 56.9753 223.973 57.2873 224.547 57.4867C225.12 57.6861 225.728 57.7688 226.334 57.73C227.657 57.73 228.634 57.139 228.634 56.33C228.634 55.719 227.942 55.373 226.619 55.311C224.277 55.169 223.035 54.111 223.035 52.42C223.035 50.384 224.969 49.183 227.635 49.183C229.035 49.1448 230.404 49.5988 231.503 50.466L230.343 51.972C229.551 51.3613 228.572 51.0449 227.573 51.077C226.087 51.077 225.293 51.504 225.293 52.299C225.293 52.95 225.904 53.337 227.146 53.459C229.712 53.704 230.913 54.559 230.913 56.249C230.913 58.325 228.958 59.73 226.213 59.73C224.596 59.8042 223.013 59.2498 221.795 58.183" fill="#323232"/>
<path d="M75.653 53.483L74.565 59.583H72.133L73.179 53.61C73.456 51.989 72.816 50.987 71.387 50.987C70.6389 50.9969 69.9203 51.2798 69.3663 51.7826C68.8123 52.2854 68.4611 52.9734 68.379 53.717L67.355 59.583H64.945L65.99 53.61C66.268 52.01 65.564 50.987 64.113 50.987C63.3778 51.0105 62.6761 51.3003 62.1386 51.8025C61.6011 52.3047 61.2643 52.985 61.191 53.717L60.167 59.583H57.735L59.591 49.045H61.767L61.596 50.219C62.0219 49.7727 62.5354 49.4191 63.1042 49.1804C63.6731 48.9418 64.2851 48.8231 64.902 48.832C65.5262 48.7707 66.1537 48.909 66.6943 49.2271C67.2348 49.5452 67.6605 50.0266 67.91 50.602C68.4 50.0272 69.0129 49.5698 69.7033 49.2635C70.3937 48.9571 71.144 48.8096 71.899 48.832C74.799 48.832 76.165 50.603 75.653 53.483Z" fill="#323232"/>
<path d="M86.424 54.294C86.5454 53.8951 86.5677 53.4726 86.4891 53.0631C86.4105 52.6536 86.2333 52.2695 85.9728 51.9439C85.7123 51.6183 85.3764 51.3611 84.9942 51.1945C84.6119 51.028 84.1948 50.9571 83.779 50.988C82.8475 50.9982 81.9505 51.3416 81.2502 51.9558C80.5499 52.5701 80.0925 53.4148 79.961 54.337C79.8395 54.7347 79.8172 55.1562 79.896 55.5646C79.9749 55.973 80.1525 56.3559 80.4134 56.6798C80.6743 57.0037 81.0105 57.2588 81.3927 57.4229C81.7749 57.587 82.1915 57.655 82.606 57.621C83.5342 57.6115 84.4286 57.2713 85.1285 56.6615C85.8283 56.0516 86.2877 55.2122 86.424 54.294ZM89.73 49.046L87.874 59.584H85.697L85.89 58.346C84.8273 59.3355 83.4163 59.8647 81.965 59.818C78.957 59.818 77.038 57.344 77.592 54.229C78.168 50.945 80.492 48.812 83.522 48.812C84.2411 48.7497 84.9641 48.8737 85.6214 49.1722C86.2786 49.4707 86.8477 49.9335 87.274 50.516L87.551 49.044L89.73 49.046Z" fill="#323232"/>
<path d="M93.399 44.652H95.831L93.207 59.584H90.774L93.399 44.652Z" fill="#323232"/>
<path d="M98.71 44.652H101.142L98.518 59.584H96.086L98.71 44.652Z" fill="#323232"/>
<path d="M100.949 58.216L102.208 56.531C102.681 56.957 103.234 57.284 103.835 57.4929C104.436 57.7017 105.073 57.7881 105.708 57.747C107.094 57.747 108.118 57.128 108.118 56.275C108.118 55.635 107.393 55.275 106.006 55.208C103.553 55.059 102.252 53.95 102.252 52.18C102.252 50.046 104.279 48.788 107.073 48.788C108.54 48.748 109.974 49.2236 111.126 50.132L109.91 51.71C109.082 51.0698 108.056 50.7378 107.01 50.771C105.453 50.771 104.621 51.219 104.621 52.052C104.621 52.734 105.261 53.139 106.562 53.268C109.25 53.523 110.508 54.419 110.508 56.189C110.508 58.365 108.46 59.837 105.581 59.837C103.887 59.9148 102.228 59.3339 100.952 58.216" fill="#323232"/>
<path d="M119.465 52.159C119.496 52.6511 119.703 53.1156 120.049 53.467C121.074 52.821 121.549 52.285 121.549 51.795C121.549 51.385 121.235 51.023 120.603 51.023C120.454 51.0223 120.306 51.0513 120.167 51.1081C120.029 51.165 119.904 51.2486 119.798 51.3542C119.693 51.4599 119.609 51.5854 119.552 51.7235C119.495 51.8616 119.466 52.0096 119.467 52.159M120.998 57.742L119.262 55.942C118.462 56.273 117.89 56.684 117.89 57.393C117.89 57.915 118.253 58.324 119.12 58.324C119.795 58.3566 120.46 58.1498 120.998 57.74M124.011 57.677L125.398 59.144L123.584 60.422L122.401 59.208C121.344 60.0853 120.005 60.5503 118.631 60.517C116.36 60.517 115.193 59.475 115.193 57.993C115.193 56.384 116.313 55.264 117.905 54.444C117.374 53.8261 117.089 53.0338 117.105 52.219C117.105 50.519 118.666 49.019 121.048 49.019C122.879 49.019 123.888 50.013 123.888 51.354C123.809 52.1134 123.537 52.8399 123.097 53.4637C122.657 54.0875 122.063 54.5876 121.374 54.916L122.54 56.131C122.853 55.6261 123.076 55.0714 123.202 54.491L125.395 54.775C125.104 55.8146 124.635 56.7958 124.008 57.675" fill="#323232"/>
</svg>
