<svg width="71" height="20" viewBox="0 0 71 20" fill="none" xmlns="http://www.w3.org/2000/svg">
<path d="M12.5 6C8.35786 6 5 9.134 5 13C5 16.866 8.35786 20 12.5 20C16.6421 20 20 16.866 20 13C20 9.134 16.6421 6 12.5 6ZM12.5 16C10.7249 16 9.28571 14.6568 9.28571 13C9.28571 11.3432 10.7249 10 12.5 10C14.2751 10 15.7143 11.3432 15.7143 13C15.7143 14.6568 14.2751 16 12.5 16Z" fill="#231F20"/>
<path d="M20 0H16V13H20V0Z" fill="#231F20"/>
<path d="M61.0112 13C62.6576 13 64 11.6568 64 9.9896C64 8.3224 62.6576 7 61.0112 7C59.3648 7 58 8.3424 58 9.9896C58 11.6368 59.3424 13 61.0112 13Z" fill="#EA1C1C"/>
<path d="M60.9892 0C66.5184 0 71 4.4876 71 10.0008C71 15.514 66.5184 20 60.9892 20C55.46 20 51 15.5352 51 10.0008C51 4.4664 55.4816 0 60.9892 0ZM60.9772 15.9892C64.3008 15.9892 66.9892 13.3 66.9892 9.9772C66.9892 6.6544 64.3008 3.9892 60.9772 3.9892C57.6536 3.9892 54.9892 6.6804 54.9892 9.9772C54.9892 13.274 57.6792 15.9892 60.9772 15.9892Z" fill="#808080"/>
<path d="M4 6H0V20H4V6Z" fill="#231F20"/>
<path d="M27 4V0L22 0V4H27Z" fill="#808080"/>
<path d="M27 12V8H23V12H27Z" fill="#808080"/>
<path d="M27 20V16H22V20H27Z" fill="#808080"/>
<path d="M27 8V12.0008C28.0908 12.0168 28.9704 12.9056 28.9704 14C28.9704 15.0944 28.0908 15.9832 27 15.9992V20C30.3136 20 33 17.3136 33 14C33 10.6864 30.3136 8 27 8Z" fill="#808080"/>
<path d="M27 0V4.0008C28.0908 4.0168 28.9704 4.9056 28.9704 6C28.9704 7.0944 28.0908 7.9832 27 7.9992V12C30.3136 12 33 9.3136 33 6C33 2.6864 30.3136 0 27 0Z" fill="#808080"/>
<path d="M42 6C38.134 6 35 9.134 35 13C35 16.866 38.134 20 42 20C45.866 20 49 16.866 49 13C49 9.134 45.866 6 42 6ZM42 16C40.3432 16 39 14.6568 39 13C39 11.3432 40.3432 10 42 10C43.6568 10 45 11.3432 45 13C45 14.6568 43.6568 16 42 16Z" fill="#808080"/>
<path d="M49 4V0L42 0V4H49Z" fill="#808080"/>
<path d="M35 7H39C39 5.3432 40.3432 4 42 4V0C38.134 0 35 3.134 35 7Z" fill="#808080"/>
<path d="M35 14H39V7L35 7V14Z" fill="#808080"/>
</svg>
