<svg width="190" height="32" viewBox="0 0 190 32" fill="none" xmlns="http://www.w3.org/2000/svg">
<path d="M171.305 23.2462V0.597656H163.847V30.7973H190V23.2462H171.305Z" fill="#041C3E"/>
<path d="M102.072 0.614258H94.5986V30.7957H102.072V0.614258Z" fill="#041C3E"/>
<path d="M34.3423 8.14881H43.7837V30.7973H51.4096V8.14881H60.8262V0.614258H34.3423V8.14881Z" fill="#041C3E"/>
<path d="M119.481 11.8118C116.765 11.5427 113.819 11.2869 113.819 9.04778C113.819 7.39503 116.393 6.65586 118.568 6.65586C121.066 6.65586 123.157 7.16912 124.961 8.22555L125.057 8.28203L129.944 3.47991L129.813 3.38191C126.675 1.04314 123.207 0 118.568 0C112.202 0 105.757 3.10784 105.757 9.04944C105.757 14.991 109.719 17.873 118.224 18.745C121.893 19.1204 123.73 19.9742 123.73 21.5954C123.73 23.2166 121.521 24.3594 118.521 24.3594C115.086 24.3594 112.28 23.386 109.942 21.3844L109.84 21.2981L104.814 26.2414L104.919 26.341C109.766 30.9654 116.014 31.4637 118.476 31.4637C127.75 31.4637 131.902 26.5719 131.902 21.725C131.902 14.619 125.147 12.4131 119.479 11.8134" fill="#041C3E"/>
<path d="M152.631 0.604492V18.5589C152.631 21.5471 150.209 23.9689 147.221 23.9689H146.703C143.715 23.9689 141.293 21.5471 141.293 18.5589V0.604492L133.83 0.627747V18.9608C133.83 25.8658 139.427 31.4636 146.334 31.4636H147.6C154.505 31.4636 160.104 25.8658 160.104 18.9608V0.627747L152.634 0.604492H152.631Z" fill="#041C3E"/>
<path d="M72 8.1621H79.4714C81.5544 8.1621 83.2437 9.8514 83.2437 11.9344C83.2437 14.0173 81.5544 15.7066 79.4714 15.7066H72V8.1621ZM90.7915 11.9344C90.7915 5.69211 85.7137 0.614258 79.4714 0.614258H64.4521V30.7973H72.01V23.2545H77.7423L83.1457 30.7973H90.7434V30.0565L84.8815 21.8758C88.3996 19.9539 90.7932 16.2182 90.7932 11.9344" fill="#041C3E"/>
<path d="M0 0.541016V8.10879H22.7083V30.8287H30.2744V0.552643H30.2595V0.541016H0Z" fill="#FFC43C"/>
<path d="M11.3485 11.9033H0.00683594V19.4678H11.3485V30.8311H18.923V11.9033H11.3485Z" fill="#FFC43C"/>
<path d="M7.56778 23.2598H0V30.8292H7.56778V23.2598Z" fill="#FFC43C"/>
<path d="M0 30.8309H7.56944V23.2598L0 30.8309Z" fill="#C48E17"/>
<path d="M11.3481 19.4678V30.8311H18.9226V11.9033L11.3481 19.4678Z" fill="#C48E17"/>
<path d="M22.7085 8.10713V30.8287H30.2746V0.552643H30.2597V0.541016L22.7085 8.10713Z" fill="#C48E17"/>
</svg>
